<?xml version="1.0" encoding="utf-8"?>
<!-- Generator: Adobe Illustrator 26.5.0, SVG Export Plug-In . SVG Version: 6.00 Build 0)  -->
<svg version="1.1" id="Capa_1" xmlns="http://www.w3.org/2000/svg" xmlns:xlink="http://www.w3.org/1999/xlink" x="0px" y="0px"
	 viewBox="0 0 64 64" style="enable-background:new 0 0 64 64;" xml:space="preserve">
<style type="text/css">
	.st0{fill:#FFFFFF;}
</style>
<g>
	<rect x="38" y="23" class="st0" width="2" height="5"/>
	<rect x="42" y="23" class="st0" width="2" height="5"/>
	<rect x="38" y="30" class="st0" width="2" height="2"/>
	<rect x="42" y="30" class="st0" width="2" height="2"/>
	<rect x="31" y="34" class="st0" width="2" height="2"/>
	<rect x="26" y="54" class="st0" width="2" height="2"/>
	<rect x="42" y="34" class="st0" width="2" height="2"/>
	<rect x="38" y="38" class="st0" width="2" height="2"/>
	<rect x="42" y="38" class="st0" width="2" height="2"/>
	<path class="st0" d="M2,2h3V0H1C0.4,0,0,0.4,0,1v4h2V2z"/>
	<path class="st0" d="M63,0h-4v2h3v3h2V1C64,0.4,63.6,0,63,0z"/>
	<path class="st0" d="M2,59H0v4c0,0.6,0.4,1,1,1h4v-2H2V59z"/>
	<path class="st0" d="M62,62h-3v2h4c0.6,0,1-0.4,1-1v-4h-2V62z"/>
	<path class="st0" d="M4,5v12c0,0.6,0.4,1,1,1h12c0.6,0,1-0.4,1-1V5c0-0.6-0.4-1-1-1H5C4.4,4,4,4.4,4,5z M6,6h10v10H6V6z"/>
	<path class="st0" d="M13,8H9C8.4,8,8,8.4,8,9v4c0,0.6,0.4,1,1,1h4c0.6,0,1-0.4,1-1V9C14,8.4,13.6,8,13,8z M12,12h-2v-2h2V12z"/>
	<path class="st0" d="M47,18h12c0.6,0,1-0.4,1-1V5c0-0.6-0.4-1-1-1H47c-0.6,0-1,0.4-1,1v12C46,17.6,46.4,18,47,18z M48,6h10v10H48V6
		z"/>
	<path class="st0" d="M55,8h-4c-0.6,0-1,0.4-1,1v4c0,0.6,0.4,1,1,1h4c0.6,0,1-0.4,1-1V9C56,8.4,55.6,8,55,8z M54,12h-2v-2h2V12z"/>
	<path class="st0" d="M17,46H5c-0.6,0-1,0.4-1,1v12c0,0.6,0.4,1,1,1h12c0.6,0,1-0.4,1-1V47C18,46.4,17.6,46,17,46z M16,58H6V48h10
		V58z"/>
	<path class="st0" d="M9,56h4c0.6,0,1-0.4,1-1v-4c0-0.6-0.4-1-1-1H9c-0.6,0-1,0.4-1,1v4C8,55.6,8.4,56,9,56z M10,52h2v2h-2V52z"/>
	<path class="st0" d="M44,19h-7V7h-2v13c0,0.6,0.4,1,1,1h8V19z"/>
	<rect x="22" y="12" class="st0" width="7" height="2"/>
	<rect x="26" y="8" class="st0" width="7" height="2"/>
	<rect x="4" y="19" class="st0" width="2" height="9"/>
	<path class="st0" d="M18,25H8v2h9v4h2v-5C19,25.4,18.6,25,18,25z"/>
	<rect x="9" y="20" class="st0" width="2" height="2"/>
	<rect x="21" y="18" class="st0" width="2" height="8"/>
	<rect x="21" y="28" class="st0" width="9" height="2"/>
	<path class="st0" d="M61,29h-2v10h-3v2h4c0.6,0,1-0.4,1-1V29z"/>
	<rect x="26" y="18" class="st0" width="2" height="2"/>
	<rect x="4" y="33" class="st0" width="2" height="8"/>
	<rect x="4" y="42" class="st0" width="9" height="2"/>
	<path class="st0" d="M50,28h2v-4c0-0.6-0.4-1-1-1h-5v2h4V28z"/>
	<rect x="9" y="33" class="st0" width="2" height="2"/>
	<rect x="20" y="32" class="st0" width="2" height="8"/>
	<rect x="20" y="42" class="st0" width="9" height="2"/>
	<rect x="8" y="38" class="st0" width="9" height="2"/>
	<rect x="21" y="52" class="st0" width="2" height="4"/>
	<rect x="20" y="48" class="st0" width="9" height="2"/>
	<path class="st0" d="M36,44v-5c0-0.6-0.4-1-1-1H25v2h9v4H36z"/>
	<rect x="26" y="32" class="st0" width="2" height="2"/>
	<rect x="15" y="34" class="st0" width="2" height="2"/>
	<rect x="59" y="53" class="st0" width="2" height="7"/>
	<rect x="54" y="58" class="st0" width="3" height="2"/>
	<rect x="54" y="52" class="st0" width="2" height="4"/>
	<path class="st0" d="M61,44c0-0.6-0.4-1-1-1H49v2h10v6h2V44z"/>
	<path class="st0" d="M48,56v-5c0-0.6-0.4-1-1-1H36v2h10v4H48z"/>
	<rect x="50" y="47" class="st0" width="7" height="2"/>
	<rect x="20" y="58" class="st0" width="7" height="2"/>
	<rect x="30" y="51" class="st0" width="2" height="9"/>
	<rect x="32" y="46" class="st0" width="4" height="2"/>
	<path class="st0" d="M47,36h5v-2h-4v-6h-2v7C46,35.6,46.4,36,47,36z"/>
	<rect x="50" y="30" class="st0" width="5" height="2"/>
	<rect x="54" y="20" class="st0" width="3" height="2"/>
	<rect x="59" y="20" class="st0" width="2" height="5"/>
	<rect x="54" y="25" class="st0" width="2" height="2"/>
	<path class="st0" d="M39,17h4c0.6,0,1-0.4,1-1V3h-2v12h-3V17z"/>
	<path class="st0" d="M24,5h15V3H23c-0.6,0-1,0.4-1,1v5h2V5z"/>
	<path class="st0" d="M25,24h7c0.6,0,1-0.4,1-1v-8h-2v7h-6V24z"/>
	<rect x="34" y="23" class="st0" width="2" height="4"/>
	<rect x="36" y="54" class="st0" width="7" height="2"/>
	<rect x="36" y="58" class="st0" width="9" height="2"/>
	<path class="st0" d="M50,58h-2v2h3c0.6,0,1-0.4,1-1v-8h-2V58z"/>
	<rect x="16" y="42" class="st0" width="2" height="2"/>
	<rect x="39" y="42" class="st0" width="4" height="2"/>
	<rect x="46" y="38" class="st0" width="2" height="3"/>
	<rect x="45" y="43" class="st0" width="2" height="2"/>
	<rect x="39" y="46" class="st0" width="3" height="2"/>
	<rect x="50" y="38" class="st0" width="2" height="2"/>
	<rect x="54" y="34" class="st0" width="3" height="2"/>
	<rect x="35" y="34" class="st0" width="5" height="2"/>
	<rect x="34" y="29" class="st0" width="2" height="3"/>
</g>
</svg>
