<svg width="1940" height="343" viewBox="0 0 1940 343" fill="none" xmlns="http://www.w3.org/2000/svg">
<g clip-path="url(#clip0_880_619)">
<rect width="1940" height="343" fill="white"/>
<rect x="-3.8999" width="80.3148" height="20.5514" rx="3" fill="#E14646" fill-opacity="0.3"/>
<path d="M3.75297 14V3.81818H7.19332C7.98877 3.81818 8.64171 3.95407 9.15212 4.22585C9.66254 4.49432 10.0404 4.86387 10.2856 5.33452C10.5309 5.80516 10.6535 6.34044 10.6535 6.94034C10.6535 7.54025 10.5309 8.07221 10.2856 8.53622C10.0404 9.00024 9.6642 9.36482 9.15709 9.62997C8.64999 9.89181 8.00203 10.0227 7.2132 10.0227H4.42911V8.90909H7.17343C7.71699 8.90909 8.15449 8.82955 8.48593 8.67045C8.82068 8.51136 9.06263 8.28598 9.21178 7.99432C9.36424 7.69934 9.44047 7.34801 9.44047 6.94034C9.44047 6.53267 9.36424 6.17637 9.21178 5.87145C9.05932 5.56652 8.81571 5.3312 8.48096 5.16548C8.1462 4.99645 7.70373 4.91193 7.15354 4.91193H4.98593V14H3.75297ZM8.54559 9.42614L11.0513 14H9.61945L7.15354 9.42614H8.54559ZM15.6686 14.1591C14.9328 14.1591 14.2981 13.9967 13.7645 13.6719C13.2342 13.3438 12.8249 12.8864 12.5365 12.2997C12.2515 11.7098 12.109 11.0237 12.109 10.2415C12.109 9.45928 12.2515 8.76989 12.5365 8.1733C12.8249 7.57339 13.2259 7.10606 13.7397 6.77131C14.2567 6.43324 14.8599 6.2642 15.5493 6.2642C15.947 6.2642 16.3398 6.33049 16.7276 6.46307C17.1154 6.59564 17.4684 6.81108 17.7865 7.10938C18.1047 7.40436 18.3583 7.79545 18.5472 8.28267C18.7361 8.76989 18.8306 9.36979 18.8306 10.0824V10.5795H12.9442V9.56534H17.6374C17.6374 9.13447 17.5512 8.75 17.3789 8.41193C17.2098 8.07386 16.9679 7.80705 16.653 7.61151C16.3415 7.41596 15.9736 7.31818 15.5493 7.31818C15.082 7.31818 14.6776 7.43419 14.3362 7.66619C13.9982 7.89489 13.738 8.19318 13.5557 8.56108C13.3734 8.92898 13.2823 9.32339 13.2823 9.74432V10.4205C13.2823 10.9972 13.3817 11.486 13.5806 11.8871C13.7827 12.2848 14.0628 12.5881 14.4208 12.7969C14.7787 13.0024 15.1947 13.1051 15.6686 13.1051C15.9769 13.1051 16.2553 13.062 16.5039 12.9759C16.7558 12.8864 16.9728 12.7538 17.1551 12.5781C17.3374 12.3991 17.4783 12.1771 17.5777 11.9119L18.7112 12.2301C18.5919 12.6146 18.3914 12.9527 18.1097 13.2443C17.828 13.5327 17.48 13.758 17.0657 13.9205C16.6514 14.0795 16.1857 14.1591 15.6686 14.1591ZM23.4989 14.1591C22.8625 14.1591 22.3007 13.9983 21.8135 13.6768C21.3263 13.352 20.9451 12.8946 20.6701 12.3047C20.395 11.7114 20.2574 11.0104 20.2574 10.2017C20.2574 9.39962 20.395 8.7036 20.6701 8.11364C20.9451 7.52367 21.328 7.06794 21.8185 6.74645C22.309 6.42495 22.8758 6.2642 23.5188 6.2642C24.0159 6.2642 24.4087 6.34706 24.697 6.51278C24.9887 6.67519 25.2108 6.8608 25.3632 7.0696C25.519 7.27509 25.64 7.44413 25.7262 7.5767H25.8256V3.81818H26.9989V14H25.8654V12.8267H25.7262C25.64 12.9659 25.5174 13.1416 25.3583 13.3537C25.1992 13.5625 24.9721 13.7498 24.6772 13.9155C24.3822 14.0779 23.9894 14.1591 23.4989 14.1591ZM23.658 13.1051C24.1286 13.1051 24.5264 12.9825 24.8512 12.7372C25.176 12.4886 25.4229 12.1456 25.5919 11.7081C25.761 11.2673 25.8455 10.7585 25.8455 10.1818C25.8455 9.61174 25.7626 9.11293 25.5969 8.68537C25.4312 8.2545 25.1859 7.91974 24.8611 7.68111C24.5363 7.43916 24.1353 7.31818 23.658 7.31818C23.1608 7.31818 22.7465 7.44579 22.4151 7.70099C22.087 7.95289 21.84 8.29593 21.6743 8.73011C21.5119 9.16098 21.4307 9.64489 21.4307 10.1818C21.4307 10.7254 21.5136 11.2192 21.6793 11.6634C21.8483 12.1042 22.0969 12.4555 22.425 12.7173C22.7565 12.9759 23.1675 13.1051 23.658 13.1051ZM36.5692 6.36364V7.35795H32.6118V6.36364H36.5692ZM33.7652 4.53409H34.9385V11.8125C34.9385 12.1439 34.9866 12.3925 35.0827 12.5582C35.1821 12.7206 35.3081 12.83 35.4605 12.8864C35.6163 12.9394 35.7804 12.9659 35.9527 12.9659C36.082 12.9659 36.188 12.9593 36.2709 12.946C36.3538 12.9295 36.4201 12.9162 36.4698 12.9062L36.7084 13.9602C36.6289 13.9901 36.5178 14.0199 36.3753 14.0497C36.2328 14.0829 36.0522 14.0994 35.8334 14.0994C35.502 14.0994 35.1772 14.0282 34.859 13.8857C34.5441 13.7431 34.2823 13.526 34.0735 13.2344C33.868 12.9427 33.7652 12.5748 33.7652 12.1307V4.53409ZM40.5813 14.179C40.0974 14.179 39.6582 14.0878 39.2638 13.9055C38.8694 13.7199 38.5562 13.4531 38.3242 13.1051C38.0922 12.7538 37.9762 12.3295 37.9762 11.8324C37.9762 11.3949 38.0623 11.0402 38.2347 10.7685C38.407 10.4934 38.6374 10.2779 38.9257 10.1222C39.2141 9.96638 39.5323 9.85038 39.8803 9.77415C40.2316 9.6946 40.5846 9.63163 40.9392 9.58523C41.4032 9.52557 41.7794 9.48082 42.0678 9.45099C42.3594 9.41785 42.5716 9.36316 42.7041 9.28693C42.84 9.2107 42.908 9.07812 42.908 8.8892V8.84943C42.908 8.3589 42.7737 7.97775 42.5053 7.70597C42.2401 7.43419 41.8374 7.2983 41.2972 7.2983C40.7371 7.2983 40.2979 7.42093 39.9797 7.66619C39.6615 7.91146 39.4378 8.1733 39.3085 8.4517L38.1949 8.05398C38.3938 7.58996 38.6589 7.22869 38.9904 6.97017C39.3251 6.70833 39.6897 6.52604 40.0841 6.4233C40.4818 6.31723 40.8729 6.2642 41.2574 6.2642C41.5027 6.2642 41.7844 6.29403 42.1026 6.35369C42.4241 6.41004 42.734 6.5277 43.0323 6.70668C43.3339 6.88565 43.5841 7.15578 43.783 7.51705C43.9818 7.87831 44.0813 8.36222 44.0813 8.96875V14H42.908V12.9659H42.8483C42.7688 13.1316 42.6362 13.3089 42.4506 13.4979C42.265 13.6868 42.0181 13.8475 41.7098 13.9801C41.4016 14.1127 41.0254 14.179 40.5813 14.179ZM40.7603 13.125C41.2243 13.125 41.6154 13.0339 41.9335 12.8516C42.255 12.6693 42.497 12.4339 42.6594 12.1456C42.8251 11.8572 42.908 11.554 42.908 11.2358V10.1619C42.8583 10.2216 42.7489 10.2763 42.5799 10.326C42.4141 10.3724 42.2219 10.4138 42.0032 10.4503C41.7877 10.4834 41.5773 10.5133 41.3718 10.5398C41.1696 10.563 41.0055 10.5829 40.8796 10.5994C40.5746 10.6392 40.2896 10.7038 40.0245 10.7933C39.7626 10.8795 39.5505 11.0104 39.3881 11.1861C39.229 11.3584 39.1495 11.5937 39.1495 11.892C39.1495 12.2997 39.3003 12.608 39.6019 12.8168C39.9068 13.0223 40.2929 13.125 40.7603 13.125ZM49.3052 17.0227C48.7384 17.0227 48.2512 16.9498 47.8435 16.804C47.4359 16.6615 47.0961 16.4725 46.8244 16.2372C46.5559 16.0052 46.3421 15.7566 46.183 15.4915L47.1177 14.8352C47.2237 14.9744 47.358 15.1335 47.5204 15.3125C47.6828 15.4948 47.9048 15.6522 48.1866 15.7848C48.4716 15.9207 48.8445 15.9886 49.3052 15.9886C49.9217 15.9886 50.4304 15.8395 50.8315 15.5412C51.2325 15.2429 51.433 14.7756 51.433 14.1392V12.5881H51.3336C51.2474 12.7273 51.1248 12.8996 50.9657 13.1051C50.8099 13.3073 50.5845 13.4879 50.2896 13.647C49.9979 13.8028 49.6035 13.8807 49.1063 13.8807C48.4898 13.8807 47.9363 13.7348 47.4458 13.4432C46.9586 13.1515 46.5725 12.7273 46.2874 12.1705C46.0057 11.6136 45.8648 10.9375 45.8648 10.142C45.8648 9.35985 46.0024 8.67874 46.2775 8.09872C46.5526 7.51539 46.9354 7.06463 47.4259 6.74645C47.9164 6.42495 48.4832 6.2642 49.1262 6.2642C49.6234 6.2642 50.0178 6.34706 50.3094 6.51278C50.6044 6.67519 50.8298 6.8608 50.9856 7.0696C51.1447 7.27509 51.2673 7.44413 51.3535 7.5767H51.4728V6.36364H52.6063V14.2188C52.6063 14.875 52.4572 15.4086 52.1589 15.8196C51.8639 16.2339 51.4662 16.5372 50.9657 16.7294C50.4685 16.925 49.915 17.0227 49.3052 17.0227ZM49.2654 12.8267C49.736 12.8267 50.1338 12.719 50.4586 12.5036C50.7834 12.2881 51.0303 11.9782 51.1994 11.5739C51.3684 11.1695 51.4529 10.6856 51.4529 10.1222C51.4529 9.57197 51.37 9.08641 51.2043 8.66548C51.0386 8.24455 50.7933 7.91477 50.4685 7.67614C50.1437 7.4375 49.7427 7.31818 49.2654 7.31818C48.7682 7.31818 48.3539 7.44413 48.0225 7.69602C47.6944 7.94792 47.4475 8.28598 47.2817 8.71023C47.1193 9.13447 47.0381 9.60511 47.0381 10.1222C47.0381 10.6525 47.121 11.1214 47.2867 11.5291C47.4557 11.9335 47.7043 12.2517 48.0324 12.4837C48.3639 12.7124 48.7749 12.8267 49.2654 12.8267Z" fill="#37352F"/>
<path d="M-4 0H1944V343H-4V0Z" fill="#CCFFE2"/>
<path fill-rule="evenodd" clip-rule="evenodd" d="M1943.55 237.166V343H475.379C535.532 293.689 599.915 248.214 668.419 207.173C1082.63 -40.9786 1540.57 29.3671 1943.55 237.166Z" fill="#FFECEA"/>
<path fill-rule="evenodd" clip-rule="evenodd" d="M1373.87 169.08C1373.93 113.585 1408.92 58.5251 1467.21 46.2885C1518.96 35.4248 1554.8 83.7468 1584.16 124.932C1611.76 163.654 1640.07 210.578 1611.16 248.223C1579.64 289.281 1518.29 294.69 1466.96 277.571C1415.17 260.296 1373.82 220.063 1373.87 169.08Z" fill="#0018A4"/>
<path fill-rule="evenodd" clip-rule="evenodd" d="M135.668 64.0355C166.613 63.0843 197.932 81.711 205.784 114.146C212.755 142.942 186.443 163.876 163.996 181.054C142.892 197.204 117.226 213.893 95.7253 198.369C72.2753 181.438 68.1762 147.165 76.8156 118.11C85.5343 88.7876 107.239 64.9093 135.668 64.0355Z" fill="white"/>
<rect x="-4" width="1944" height="100" fill="#0018A4"/>
<path d="M6.99876 56.424H4.98976C-0.0532376 56.424 -3.74324 52.447 -3.74324 47.65C-3.74324 42.812 -0.0532376 38.876 4.98976 38.876H6.99876V39.532H4.98976C0.356762 39.532 -3.08724 43.14 -3.08724 47.65C-3.08724 52.119 0.356762 55.768 4.98976 55.768H6.99876V56.424ZM6.99876 62H4.98976C-2.96424 62 -9.31924 55.563 -9.31924 47.65C-9.31924 39.737 -2.96424 33.3 4.98976 33.3H6.99876V33.956H4.98976C-2.63624 33.956 -8.66324 40.065 -8.66324 47.65C-8.66324 55.235 -2.63624 61.344 4.98976 61.344H6.99876V62ZM29.4005 40.27V62H28.7445V55.809C27.8425 58.146 26.0795 60.073 23.8245 61.18V62H23.1685V61.508C22.0205 61.959 20.7905 62.205 19.4785 62.205C14.0255 62.205 9.55646 57.736 9.55646 52.283V40.27H10.2125V52.283C10.2125 57.367 14.3945 61.549 19.4785 61.549C20.7905 61.549 22.0205 61.262 23.1685 60.77V54.579C22.3895 55.809 21.0365 56.629 19.4785 56.629C17.1005 56.629 15.1325 54.661 15.1325 52.283V40.27H15.7885V52.283C15.7885 54.292 17.4695 55.973 19.4785 55.973C21.4875 55.973 23.1685 54.292 23.1685 52.283V40.27H23.8245V60.442C26.7355 58.884 28.7445 55.809 28.7445 52.283V40.27H29.4005ZM32.6036 46.953C32.6036 42.976 35.8016 39.778 39.7786 39.778C42.7306 39.778 45.2726 41.582 46.3796 44.124L45.7646 44.411C44.7806 42.074 42.4436 40.434 39.7786 40.434C36.1706 40.434 33.2596 43.345 33.2596 46.953C33.2596 50.028 35.3506 52.57 38.2206 53.308L40.0246 53.759C40.7216 53.923 41.2136 54.579 41.2136 55.317C41.2136 56.219 40.5166 56.916 39.6146 56.916C38.9176 56.916 38.3436 56.506 38.0976 55.85L38.7126 55.604C38.8356 55.973 39.1636 56.26 39.6146 56.26C40.1476 56.26 40.5576 55.85 40.5576 55.317C40.5576 54.866 40.3116 54.497 39.8606 54.374L38.0156 53.923C34.8996 53.144 32.6036 50.315 32.6036 46.953ZM33.0136 58.187L33.6286 57.9C34.6126 60.237 36.9086 61.836 39.6146 61.836C43.2226 61.836 46.1336 58.925 46.1336 55.317C46.1336 52.242 44.0426 49.7 41.1726 48.962L39.3686 48.511C38.6306 48.306 38.1796 47.691 38.1796 46.953C38.1796 46.051 38.8766 45.354 39.7786 45.354C40.4756 45.354 41.0496 45.805 41.2546 46.42L40.6806 46.666C40.5576 46.297 40.1886 46.01 39.7786 46.01C39.2456 46.01 38.8356 46.42 38.8356 46.953C38.8356 47.404 39.0816 47.773 39.5326 47.896L41.3776 48.347C44.5346 49.126 46.7896 51.955 46.7896 55.317C46.7896 59.294 43.5916 62.492 39.6146 62.492C36.6626 62.492 34.1206 60.729 33.0136 58.187ZM51.8534 40.926H48.6144V40.27H51.8534V33.3H52.5094V40.27H57.4294V33.3H58.0854V40.27H61.3244V40.926H58.0854V45.846H61.3244V46.502H58.0854V62H57.4294V46.502H52.5094V62H51.8534V46.502H48.6144V45.846H51.8534V40.926ZM57.4294 40.926H52.5094V45.846H57.4294V40.926ZM74.0242 62.492C67.7512 62.492 62.6672 57.408 62.6672 51.135C62.6672 44.862 67.7512 39.778 74.0242 39.778C80.2972 39.778 85.3812 44.862 85.3812 51.135C85.3812 57.408 80.2972 62.492 74.0242 62.492ZM74.0242 61.836C79.9282 61.836 84.7252 57.039 84.7252 51.135C84.7252 45.231 79.9282 40.434 74.0242 40.434C68.1202 40.434 63.3232 45.231 63.3232 51.135C63.3232 57.039 68.1202 61.836 74.0242 61.836ZM74.0242 56.916C70.8262 56.916 68.2432 54.333 68.2432 51.135C68.2432 47.937 70.8262 45.354 74.0242 45.354C77.2222 45.354 79.8052 47.937 79.8052 51.135C79.8052 54.333 77.2222 56.916 74.0242 56.916ZM74.0242 56.26C76.8532 56.26 79.1492 53.964 79.1492 51.135C79.1492 48.306 76.8532 46.01 74.0242 46.01C71.1952 46.01 68.8992 48.306 68.8992 51.135C68.8992 53.964 71.1952 56.26 74.0242 56.26ZM88.321 62V40.27H88.977V45.969C89.879 43.714 91.683 41.869 93.897 40.885V40.27H94.553V40.639C95.496 40.311 96.562 40.106 97.628 40.106C100.006 40.106 102.179 41.008 103.819 42.484C105.459 41.008 107.632 40.106 110.01 40.106C115.135 40.106 119.317 44.288 119.317 49.413V62H118.661V49.413C118.661 44.657 114.766 40.762 110.01 40.762C107.837 40.762 105.828 41.582 104.311 42.935C105.541 44.206 106.402 45.805 106.771 47.609C107.386 46.461 108.616 45.682 110.01 45.682C112.06 45.682 113.741 47.363 113.741 49.413V62H113.085V49.413C113.085 47.732 111.691 46.338 110.01 46.338C108.329 46.338 106.935 47.732 106.935 49.413V62H106.279V49.413C106.279 47.076 105.336 44.944 103.819 43.386C102.302 44.944 101.359 47.076 101.359 49.413V62H100.703V49.413C100.703 47.732 99.309 46.338 97.628 46.338C95.947 46.338 94.553 47.732 94.553 49.413V62H93.897V41.623C90.986 43.017 88.977 46.01 88.977 49.413V62H88.321ZM94.553 41.336V47.322C95.209 46.338 96.357 45.682 97.628 45.682C99.022 45.682 100.252 46.461 100.867 47.609C101.236 45.805 102.097 44.206 103.327 42.935C101.81 41.582 99.801 40.762 97.628 40.762C96.562 40.762 95.496 40.967 94.553 41.336ZM137.912 44.534V33.3H138.568V44.534H149.392V33.3H150.048V44.534H154.968V33.3H155.624V62H154.968V50.766H150.048V62H149.392V50.766H138.568V62H137.912V50.766H132.992V62H132.336V33.3H132.992V44.534H137.912ZM149.392 45.19H138.568V50.11H149.392V45.19ZM137.912 50.11V45.19H132.992V50.11H137.912ZM154.968 50.11V45.19H150.048V50.11H154.968ZM170.038 62.492C163.765 62.492 158.681 57.408 158.681 51.135C158.681 44.862 163.765 39.778 170.038 39.778C176.311 39.778 181.395 44.862 181.395 51.135C181.395 57.408 176.311 62.492 170.038 62.492ZM170.038 61.836C175.942 61.836 180.739 57.039 180.739 51.135C180.739 45.231 175.942 40.434 170.038 40.434C164.134 40.434 159.337 45.231 159.337 51.135C159.337 57.039 164.134 61.836 170.038 61.836ZM170.038 56.916C166.84 56.916 164.257 54.333 164.257 51.135C164.257 47.937 166.84 45.354 170.038 45.354C173.236 45.354 175.819 47.937 175.819 51.135C175.819 54.333 173.236 56.916 170.038 56.916ZM170.038 56.26C172.867 56.26 175.163 53.964 175.163 51.135C175.163 48.306 172.867 46.01 170.038 46.01C167.209 46.01 164.913 48.306 164.913 51.135C164.913 53.964 167.209 56.26 170.038 56.26ZM194.462 62.492C188.189 62.492 183.105 57.408 183.105 51.135C183.105 44.862 188.189 39.778 194.462 39.778C200.735 39.778 205.819 44.862 205.819 51.135C205.819 57.408 200.735 62.492 194.462 62.492ZM194.462 61.836C200.366 61.836 205.163 57.039 205.163 51.135C205.163 45.231 200.366 40.434 194.462 40.434C188.558 40.434 183.761 45.231 183.761 51.135C183.761 57.039 188.558 61.836 194.462 61.836ZM194.462 56.916C191.264 56.916 188.681 54.333 188.681 51.135C188.681 47.937 191.264 45.354 194.462 45.354C197.66 45.354 200.243 47.937 200.243 51.135C200.243 54.333 197.66 56.916 194.462 56.916ZM194.462 56.26C197.291 56.26 199.587 53.964 199.587 51.135C199.587 48.306 197.291 46.01 194.462 46.01C191.633 46.01 189.337 48.306 189.337 51.135C189.337 53.964 191.633 56.26 194.462 56.26ZM219.213 56.014L223.641 62H222.821L214.99 51.422V62H214.334V31.25H214.99V51.422L223.641 40.27H224.461L219.254 46.953L222.288 50.971L230.529 40.27H231.349L222.698 51.504L230.529 62H229.709L222.247 52.078L219.213 56.014ZM209.414 31.25V62H208.758V31.25H209.414ZM221.837 51.504L218.844 47.486L215.769 51.422L218.803 55.481L221.837 51.504ZM231.037 46.953C231.037 42.976 234.235 39.778 238.212 39.778C241.164 39.778 243.706 41.582 244.813 44.124L244.198 44.411C243.214 42.074 240.877 40.434 238.212 40.434C234.604 40.434 231.693 43.345 231.693 46.953C231.693 50.028 233.784 52.57 236.654 53.308L238.458 53.759C239.155 53.923 239.647 54.579 239.647 55.317C239.647 56.219 238.95 56.916 238.048 56.916C237.351 56.916 236.777 56.506 236.531 55.85L237.146 55.604C237.269 55.973 237.597 56.26 238.048 56.26C238.581 56.26 238.991 55.85 238.991 55.317C238.991 54.866 238.745 54.497 238.294 54.374L236.449 53.923C233.333 53.144 231.037 50.315 231.037 46.953ZM231.447 58.187L232.062 57.9C233.046 60.237 235.342 61.836 238.048 61.836C241.656 61.836 244.567 58.925 244.567 55.317C244.567 52.242 242.476 49.7 239.606 48.962L237.802 48.511C237.064 48.306 236.613 47.691 236.613 46.953C236.613 46.051 237.31 45.354 238.212 45.354C238.909 45.354 239.483 45.805 239.688 46.42L239.114 46.666C238.991 46.297 238.622 46.01 238.212 46.01C237.679 46.01 237.269 46.42 237.269 46.953C237.269 47.404 237.515 47.773 237.966 47.896L239.811 48.347C242.968 49.126 245.223 51.955 245.223 55.317C245.223 59.294 242.025 62.492 238.048 62.492C235.096 62.492 232.554 60.729 231.447 58.187ZM267.706 45.764H256.841V45.108H267.706V45.764ZM267.706 51.34H256.841V50.684H267.706V51.34ZM294.043 56.26C298.758 56.26 302.653 52.365 302.653 47.65C302.653 42.935 298.758 39.04 294.043 39.04C289.328 39.04 285.433 42.935 285.433 47.65C285.433 52.365 289.328 56.26 294.043 56.26ZM302.12 52.119L305.523 55.973C307.204 53.636 308.229 50.766 308.229 47.65C308.229 39.819 301.874 33.464 294.043 33.464C286.212 33.464 279.857 39.819 279.857 47.65C279.857 55.481 286.212 61.836 294.043 61.836C296.503 61.836 298.84 61.221 300.89 60.073L297.528 56.219C296.462 56.67 295.273 56.916 294.043 56.916C289 56.916 284.777 52.693 284.777 47.65C284.777 42.607 289 38.384 294.043 38.384C299.086 38.384 303.309 42.607 303.309 47.65C303.309 49.29 302.858 50.807 302.12 52.119ZM298.143 55.932L301.423 59.745C302.694 59.048 304.129 57.777 305.113 56.506L301.751 52.693C300.931 54.005 299.701 55.153 298.143 55.932ZM307.491 59.212L305.564 56.998C304.457 58.392 303.022 59.581 301.874 60.237L303.76 62.451L303.268 62.861L301.3 60.565C299.168 61.795 296.667 62.492 294.043 62.492C285.884 62.492 279.201 55.809 279.201 47.65C279.201 39.491 285.884 32.808 294.043 32.808C302.202 32.808 308.885 39.491 308.885 47.65C308.885 50.971 307.778 54.005 305.933 56.465L307.983 58.802L307.491 59.212ZM325.384 62H324.728L318.824 46.871V62H318.168V39.532H313.248V62H312.592V33.3H321.735C326.983 33.3 331.165 37.482 331.165 42.73C331.165 46.912 329.074 49.372 326.655 50.889L330.96 62H330.304L326.122 51.217C324.933 51.914 323.252 52.529 321.858 52.939L325.384 62ZM324.482 45.313L326.409 50.274C328.623 48.88 330.509 46.584 330.509 42.73C330.509 37.81 326.655 33.956 321.735 33.956H318.824V38.876H321.735C323.867 38.876 325.589 40.598 325.589 42.73C325.589 43.714 325.22 44.575 324.482 45.313ZM318.824 39.532V46.871L320.382 46.543C323.58 45.846 324.933 44.493 324.933 42.73C324.933 40.926 323.539 39.532 321.735 39.532H318.824ZM313.248 33.956V38.876H318.168V33.956H313.248ZM325.876 50.602L323.99 45.764C322.76 46.707 321.325 47.035 319.726 47.363L321.612 52.283C322.842 51.955 324.851 51.217 325.876 50.602ZM358.301 56.424H356.292C351.249 56.424 347.559 52.447 347.559 47.65C347.559 42.812 351.249 38.876 356.292 38.876H358.301V39.532H356.292C351.659 39.532 348.215 43.14 348.215 47.65C348.215 52.119 351.659 55.768 356.292 55.768H358.301V56.424ZM358.301 62H356.292C348.338 62 341.983 55.563 341.983 47.65C341.983 39.737 348.338 33.3 356.292 33.3H358.301V33.956H356.292C348.666 33.956 342.639 40.065 342.639 47.65C342.639 55.235 348.666 61.344 356.292 61.344H358.301V62ZM371.074 62.492C364.801 62.492 359.717 57.408 359.717 51.135C359.717 44.862 364.801 39.778 371.074 39.778C377.347 39.778 382.431 44.862 382.431 51.135C382.431 57.408 377.347 62.492 371.074 62.492ZM371.074 61.836C376.978 61.836 381.775 57.039 381.775 51.135C381.775 45.231 376.978 40.434 371.074 40.434C365.17 40.434 360.373 45.231 360.373 51.135C360.373 57.039 365.17 61.836 371.074 61.836ZM371.074 56.916C367.876 56.916 365.293 54.333 365.293 51.135C365.293 47.937 367.876 45.354 371.074 45.354C374.272 45.354 376.855 47.937 376.855 51.135C376.855 54.333 374.272 56.916 371.074 56.916ZM371.074 56.26C373.903 56.26 376.199 53.964 376.199 51.135C376.199 48.306 373.903 46.01 371.074 46.01C368.245 46.01 365.949 48.306 365.949 51.135C365.949 53.964 368.245 56.26 371.074 56.26ZM384.141 51.135C384.141 44.862 389.225 39.778 395.498 39.778C397.343 39.778 399.065 40.229 400.623 41.008V31.25H401.279V41.377C403.575 42.648 405.338 44.944 406.199 47.322V31.25H406.855V62H406.199V54.907C405.379 57.244 403.575 59.663 401.279 60.934V62H400.623V61.262C399.065 62.041 397.343 62.492 395.498 62.492C389.225 62.492 384.141 57.408 384.141 51.135ZM384.797 51.135C384.797 57.039 389.594 61.836 395.498 61.836C397.343 61.836 399.106 61.385 400.623 60.565V53.841C399.639 55.645 397.712 56.916 395.498 56.916C392.3 56.916 389.717 54.333 389.717 51.135C389.717 47.937 392.3 45.354 395.498 45.354C397.712 45.354 399.639 46.625 400.623 48.47V41.746C399.106 40.926 397.343 40.434 395.498 40.434C389.594 40.434 384.797 45.231 384.797 51.135ZM390.373 51.135C390.373 53.964 392.669 56.26 395.498 56.26C398.368 56.26 400.623 53.964 400.623 51.135C400.623 48.306 398.368 46.01 395.498 46.01C392.669 46.01 390.373 48.306 390.373 51.135ZM401.279 42.115V60.155C404.026 58.474 406.199 55.071 406.199 51.135C406.199 47.199 404.026 43.796 401.279 42.115ZM409.806 51.135C409.806 44.862 414.89 39.778 421.163 39.778C426.165 39.778 430.388 42.976 431.905 47.486L418.58 55.563C419.359 56.014 420.22 56.26 421.163 56.26C423.213 56.26 424.976 55.03 425.796 53.308L426.411 53.595C425.509 55.563 423.5 56.916 421.163 56.916C419.974 56.916 418.867 56.547 417.965 55.932L413.537 58.638C415.464 60.606 418.17 61.836 421.163 61.836C425.427 61.836 429.158 59.294 430.88 55.645L431.454 55.932C429.65 59.827 425.714 62.492 421.163 62.492C414.89 62.492 409.806 57.408 409.806 51.135ZM410.462 51.135C410.462 52.324 410.667 53.431 410.995 54.497L415.423 51.791C415.382 51.586 415.382 51.34 415.382 51.135C415.382 47.937 417.965 45.354 421.163 45.354C422.352 45.354 423.5 45.723 424.402 46.338L428.789 43.673C426.862 41.664 424.156 40.434 421.163 40.434C415.259 40.434 410.462 45.231 410.462 51.135ZM411.241 55.112C411.692 56.219 412.307 57.244 413.086 58.146L417.391 55.522C416.489 54.743 415.833 53.677 415.546 52.488L411.241 55.112ZM416.038 51.135V51.422L423.787 46.707C423.008 46.256 422.106 46.01 421.163 46.01C418.334 46.01 416.038 48.306 416.038 51.135ZM416.12 52.16C416.366 53.349 417.063 54.415 418.006 55.153L426.206 50.151C425.96 48.962 425.304 47.896 424.361 47.117L416.12 52.16ZM424.976 46.789C425.878 47.568 426.534 48.593 426.78 49.823L431.126 47.158C430.675 46.051 430.019 45.067 429.281 44.165L424.976 46.789ZM446.976 47.65C446.976 42.607 451.199 38.384 456.242 38.384C458.374 38.384 460.342 39.122 461.9 40.352L461.49 40.844C460.055 39.696 458.251 39.04 456.242 39.04C451.527 39.04 447.632 42.935 447.632 47.65C447.632 52.119 451.076 55.768 455.709 55.768H459.276V47.322H459.932V55.768H464.852V47.322H465.508V62H459.932V62.041L459.276 62H455.709C447.755 62 441.4 55.563 441.4 47.65C441.4 39.491 448.083 32.808 456.242 32.808C459.645 32.808 462.802 33.997 465.303 35.924L464.893 36.416C462.515 34.571 459.522 33.464 456.242 33.464C448.411 33.464 442.056 39.819 442.056 47.65C442.056 55.235 448.083 61.344 455.709 61.344H459.276V56.424H455.709C450.666 56.424 446.976 52.447 446.976 47.65ZM459.932 56.424V61.344H464.852V56.424H459.932ZM468.063 51.135C468.063 44.862 473.147 39.778 479.42 39.778C484.422 39.778 488.645 42.976 490.162 47.486L476.837 55.563C477.616 56.014 478.477 56.26 479.42 56.26C481.47 56.26 483.233 55.03 484.053 53.308L484.668 53.595C483.766 55.563 481.757 56.916 479.42 56.916C478.231 56.916 477.124 56.547 476.222 55.932L471.794 58.638C473.721 60.606 476.427 61.836 479.42 61.836C483.684 61.836 487.415 59.294 489.137 55.645L489.711 55.932C487.907 59.827 483.971 62.492 479.42 62.492C473.147 62.492 468.063 57.408 468.063 51.135ZM468.719 51.135C468.719 52.324 468.924 53.431 469.252 54.497L473.68 51.791C473.639 51.586 473.639 51.34 473.639 51.135C473.639 47.937 476.222 45.354 479.42 45.354C480.609 45.354 481.757 45.723 482.659 46.338L487.046 43.673C485.119 41.664 482.413 40.434 479.42 40.434C473.516 40.434 468.719 45.231 468.719 51.135ZM469.498 55.112C469.949 56.219 470.564 57.244 471.343 58.146L475.648 55.522C474.746 54.743 474.09 53.677 473.803 52.488L469.498 55.112ZM474.295 51.135V51.422L482.044 46.707C481.265 46.256 480.363 46.01 479.42 46.01C476.591 46.01 474.295 48.306 474.295 51.135ZM474.377 52.16C474.623 53.349 475.32 54.415 476.263 55.153L484.463 50.151C484.217 48.962 483.561 47.896 482.618 47.117L474.377 52.16ZM483.233 46.789C484.135 47.568 484.791 48.593 485.037 49.823L489.383 47.158C488.932 46.051 488.276 45.067 487.538 44.165L483.233 46.789ZM492.155 62V40.27H492.811V46.461C493.713 44.124 495.476 42.197 497.731 41.09V40.27H498.387V40.762C499.535 40.311 500.765 40.065 502.077 40.065C507.53 40.065 511.999 44.534 511.999 49.987V62H511.343V49.987C511.343 44.903 507.161 40.721 502.077 40.721C500.765 40.721 499.535 41.008 498.387 41.5V47.691C499.166 46.461 500.519 45.641 502.077 45.641C504.455 45.641 506.423 47.609 506.423 49.987V62H505.767V49.987C505.767 47.978 504.086 46.297 502.077 46.297C500.068 46.297 498.387 47.978 498.387 49.987V62H497.731V41.828C494.82 43.386 492.811 46.461 492.811 49.987V62H492.155ZM514.628 51.135C514.628 44.862 519.712 39.778 525.985 39.778C530.987 39.778 535.21 42.976 536.727 47.486L523.402 55.563C524.181 56.014 525.042 56.26 525.985 56.26C528.035 56.26 529.798 55.03 530.618 53.308L531.233 53.595C530.331 55.563 528.322 56.916 525.985 56.916C524.796 56.916 523.689 56.547 522.787 55.932L518.359 58.638C520.286 60.606 522.992 61.836 525.985 61.836C530.249 61.836 533.98 59.294 535.702 55.645L536.276 55.932C534.472 59.827 530.536 62.492 525.985 62.492C519.712 62.492 514.628 57.408 514.628 51.135ZM515.284 51.135C515.284 52.324 515.489 53.431 515.817 54.497L520.245 51.791C520.204 51.586 520.204 51.34 520.204 51.135C520.204 47.937 522.787 45.354 525.985 45.354C527.174 45.354 528.322 45.723 529.224 46.338L533.611 43.673C531.684 41.664 528.978 40.434 525.985 40.434C520.081 40.434 515.284 45.231 515.284 51.135ZM516.063 55.112C516.514 56.219 517.129 57.244 517.908 58.146L522.213 55.522C521.311 54.743 520.655 53.677 520.368 52.488L516.063 55.112ZM520.86 51.135V51.422L528.609 46.707C527.83 46.256 526.928 46.01 525.985 46.01C523.156 46.01 520.86 48.306 520.86 51.135ZM520.942 52.16C521.188 53.349 521.885 54.415 522.828 55.153L531.028 50.151C530.782 48.962 530.126 47.896 529.183 47.117L520.942 52.16ZM529.798 46.789C530.7 47.568 531.356 48.593 531.602 49.823L535.948 47.158C535.497 46.051 534.841 45.067 534.103 44.165L529.798 46.789ZM544.296 62V42.689C542.082 44.042 539.376 46.83 539.376 51.709V62H538.72V40.27H539.376V47.732C540.401 44.903 542 43.304 544.296 41.951V40.27H544.952V41.582C546.592 40.762 548.355 40.352 550.077 40.352V41.008C548.355 41.008 546.551 41.459 544.952 42.32V49.044C545.895 47.199 547.863 45.928 550.077 45.928V46.584C547.207 46.584 544.952 48.88 544.952 51.709V62H544.296ZM568.001 42.115V60.155C570.748 58.474 572.921 55.071 572.921 51.135C572.921 47.199 570.748 43.796 568.001 42.115ZM562.22 39.778C564.065 39.778 565.787 40.229 567.345 41.008V40.27H568.001V41.377C570.297 42.648 572.06 44.944 572.921 47.322V40.27H573.577V62H572.921V54.907C572.101 57.244 570.297 59.663 568.001 60.934V62H567.345V61.262C565.787 62.041 564.065 62.492 562.22 62.492C555.947 62.492 550.863 57.408 550.863 51.135C550.863 44.862 555.947 39.778 562.22 39.778ZM562.22 61.836C564.065 61.836 565.828 61.385 567.345 60.565V53.841C566.361 55.645 564.434 56.916 562.22 56.916C559.022 56.916 556.439 54.333 556.439 51.135C556.439 47.937 559.022 45.354 562.22 45.354C564.434 45.354 566.361 46.625 567.345 48.47V41.746C565.828 40.926 564.065 40.434 562.22 40.434C556.316 40.434 551.519 45.231 551.519 51.135C551.519 57.039 556.316 61.836 562.22 61.836ZM562.22 56.26C565.09 56.26 567.345 53.964 567.345 51.135C567.345 48.306 565.09 46.01 562.22 46.01C559.391 46.01 557.095 48.306 557.095 51.135C557.095 53.964 559.391 56.26 562.22 56.26ZM579.808 40.926H576.569V40.27H579.808V33.3H580.464V40.27H585.384V33.3H586.04V40.27H589.279V40.926H586.04V45.846H589.279V46.502H586.04V62H585.384V46.502H580.464V62H579.808V46.502H576.569V45.846H579.808V40.926ZM585.384 40.926H580.464V45.846H585.384V40.926ZM601.979 62.492C595.706 62.492 590.622 57.408 590.622 51.135C590.622 44.862 595.706 39.778 601.979 39.778C608.252 39.778 613.336 44.862 613.336 51.135C613.336 57.408 608.252 62.492 601.979 62.492ZM601.979 61.836C607.883 61.836 612.68 57.039 612.68 51.135C612.68 45.231 607.883 40.434 601.979 40.434C596.075 40.434 591.278 45.231 591.278 51.135C591.278 57.039 596.075 61.836 601.979 61.836ZM601.979 56.916C598.781 56.916 596.198 54.333 596.198 51.135C596.198 47.937 598.781 45.354 601.979 45.354C605.177 45.354 607.76 47.937 607.76 51.135C607.76 54.333 605.177 56.916 601.979 56.916ZM601.979 56.26C604.808 56.26 607.104 53.964 607.104 51.135C607.104 48.306 604.808 46.01 601.979 46.01C599.15 46.01 596.854 48.306 596.854 51.135C596.854 53.964 599.15 56.26 601.979 56.26ZM621.852 62V42.689C619.638 44.042 616.932 46.83 616.932 51.709V62H616.276V40.27H616.932V47.732C617.957 44.903 619.556 43.304 621.852 41.951V40.27H622.508V41.582C624.148 40.762 625.911 40.352 627.633 40.352V41.008C625.911 41.008 624.107 41.459 622.508 42.32V49.044C623.451 47.199 625.419 45.928 627.633 45.928V46.584C624.763 46.584 622.508 48.88 622.508 51.709V62H621.852ZM653.95 56.424H651.941C646.898 56.424 643.208 52.447 643.208 47.65C643.208 42.812 646.898 38.876 651.941 38.876H653.95V39.532H651.941C647.308 39.532 643.864 43.14 643.864 47.65C643.864 52.119 647.308 55.768 651.941 55.768H653.95V56.424ZM653.95 62H651.941C643.987 62 637.632 55.563 637.632 47.65C637.632 39.737 643.987 33.3 651.941 33.3H653.95V33.956H651.941C644.315 33.956 638.288 40.065 638.288 47.65C638.288 55.235 644.315 61.344 651.941 61.344H653.95V62ZM676.352 40.27V62H675.696V55.809C674.794 58.146 673.031 60.073 670.776 61.18V62H670.12V61.508C668.972 61.959 667.742 62.205 666.43 62.205C660.977 62.205 656.508 57.736 656.508 52.283V40.27H657.164V52.283C657.164 57.367 661.346 61.549 666.43 61.549C667.742 61.549 668.972 61.262 670.12 60.77V54.579C669.341 55.809 667.988 56.629 666.43 56.629C664.052 56.629 662.084 54.661 662.084 52.283V40.27H662.74V52.283C662.74 54.292 664.421 55.973 666.43 55.973C668.439 55.973 670.12 54.292 670.12 52.283V40.27H670.776V60.442C673.687 58.884 675.696 55.809 675.696 52.283V40.27H676.352ZM679.555 46.953C679.555 42.976 682.753 39.778 686.73 39.778C689.682 39.778 692.224 41.582 693.331 44.124L692.716 44.411C691.732 42.074 689.395 40.434 686.73 40.434C683.122 40.434 680.211 43.345 680.211 46.953C680.211 50.028 682.302 52.57 685.172 53.308L686.976 53.759C687.673 53.923 688.165 54.579 688.165 55.317C688.165 56.219 687.468 56.916 686.566 56.916C685.869 56.916 685.295 56.506 685.049 55.85L685.664 55.604C685.787 55.973 686.115 56.26 686.566 56.26C687.099 56.26 687.509 55.85 687.509 55.317C687.509 54.866 687.263 54.497 686.812 54.374L684.967 53.923C681.851 53.144 679.555 50.315 679.555 46.953ZM679.965 58.187L680.58 57.9C681.564 60.237 683.86 61.836 686.566 61.836C690.174 61.836 693.085 58.925 693.085 55.317C693.085 52.242 690.994 49.7 688.124 48.962L686.32 48.511C685.582 48.306 685.131 47.691 685.131 46.953C685.131 46.051 685.828 45.354 686.73 45.354C687.427 45.354 688.001 45.805 688.206 46.42L687.632 46.666C687.509 46.297 687.14 46.01 686.73 46.01C686.197 46.01 685.787 46.42 685.787 46.953C685.787 47.404 686.033 47.773 686.484 47.896L688.329 48.347C691.486 49.126 693.741 51.955 693.741 55.317C693.741 59.294 690.543 62.492 686.566 62.492C683.614 62.492 681.072 60.729 679.965 58.187ZM698.805 40.926H695.566V40.27H698.805V33.3H699.461V40.27H704.381V33.3H705.037V40.27H708.276V40.926H705.037V45.846H708.276V46.502H705.037V62H704.381V46.502H699.461V62H698.805V46.502H695.566V45.846H698.805V40.926ZM704.381 40.926H699.461V45.846H704.381V40.926ZM720.975 62.492C714.702 62.492 709.618 57.408 709.618 51.135C709.618 44.862 714.702 39.778 720.975 39.778C727.248 39.778 732.332 44.862 732.332 51.135C732.332 57.408 727.248 62.492 720.975 62.492ZM720.975 61.836C726.879 61.836 731.676 57.039 731.676 51.135C731.676 45.231 726.879 40.434 720.975 40.434C715.071 40.434 710.274 45.231 710.274 51.135C710.274 57.039 715.071 61.836 720.975 61.836ZM720.975 56.916C717.777 56.916 715.194 54.333 715.194 51.135C715.194 47.937 717.777 45.354 720.975 45.354C724.173 45.354 726.756 47.937 726.756 51.135C726.756 54.333 724.173 56.916 720.975 56.916ZM720.975 56.26C723.804 56.26 726.1 53.964 726.1 51.135C726.1 48.306 723.804 46.01 720.975 46.01C718.146 46.01 715.85 48.306 715.85 51.135C715.85 53.964 718.146 56.26 720.975 56.26ZM735.272 62V40.27H735.928V45.969C736.83 43.714 738.634 41.869 740.848 40.885V40.27H741.504V40.639C742.447 40.311 743.513 40.106 744.579 40.106C746.957 40.106 749.13 41.008 750.77 42.484C752.41 41.008 754.583 40.106 756.961 40.106C762.086 40.106 766.268 44.288 766.268 49.413V62H765.612V49.413C765.612 44.657 761.717 40.762 756.961 40.762C754.788 40.762 752.779 41.582 751.262 42.935C752.492 44.206 753.353 45.805 753.722 47.609C754.337 46.461 755.567 45.682 756.961 45.682C759.011 45.682 760.692 47.363 760.692 49.413V62H760.036V49.413C760.036 47.732 758.642 46.338 756.961 46.338C755.28 46.338 753.886 47.732 753.886 49.413V62H753.23V49.413C753.23 47.076 752.287 44.944 750.77 43.386C749.253 44.944 748.31 47.076 748.31 49.413V62H747.654V49.413C747.654 47.732 746.26 46.338 744.579 46.338C742.898 46.338 741.504 47.732 741.504 49.413V62H740.848V41.623C737.937 43.017 735.928 46.01 735.928 49.413V62H735.272ZM741.504 41.336V47.322C742.16 46.338 743.308 45.682 744.579 45.682C745.973 45.682 747.203 46.461 747.818 47.609C748.187 45.805 749.048 44.206 750.278 42.935C748.761 41.582 746.752 40.762 744.579 40.762C743.513 40.762 742.447 40.967 741.504 41.336ZM784.864 44.534V33.3H785.52V44.534H796.344V33.3H797V44.534H801.92V33.3H802.576V62H801.92V50.766H797V62H796.344V50.766H785.52V62H784.864V50.766H779.944V62H779.288V33.3H779.944V44.534H784.864ZM796.344 45.19H785.52V50.11H796.344V45.19ZM784.864 50.11V45.19H779.944V50.11H784.864ZM801.92 50.11V45.19H797V50.11H801.92ZM816.989 62.492C810.716 62.492 805.632 57.408 805.632 51.135C805.632 44.862 810.716 39.778 816.989 39.778C823.262 39.778 828.346 44.862 828.346 51.135C828.346 57.408 823.262 62.492 816.989 62.492ZM816.989 61.836C822.893 61.836 827.69 57.039 827.69 51.135C827.69 45.231 822.893 40.434 816.989 40.434C811.085 40.434 806.288 45.231 806.288 51.135C806.288 57.039 811.085 61.836 816.989 61.836ZM816.989 56.916C813.791 56.916 811.208 54.333 811.208 51.135C811.208 47.937 813.791 45.354 816.989 45.354C820.187 45.354 822.77 47.937 822.77 51.135C822.77 54.333 820.187 56.916 816.989 56.916ZM816.989 56.26C819.818 56.26 822.114 53.964 822.114 51.135C822.114 48.306 819.818 46.01 816.989 46.01C814.16 46.01 811.864 48.306 811.864 51.135C811.864 53.964 814.16 56.26 816.989 56.26ZM841.413 62.492C835.14 62.492 830.056 57.408 830.056 51.135C830.056 44.862 835.14 39.778 841.413 39.778C847.686 39.778 852.77 44.862 852.77 51.135C852.77 57.408 847.686 62.492 841.413 62.492ZM841.413 61.836C847.317 61.836 852.114 57.039 852.114 51.135C852.114 45.231 847.317 40.434 841.413 40.434C835.509 40.434 830.712 45.231 830.712 51.135C830.712 57.039 835.509 61.836 841.413 61.836ZM841.413 56.916C838.215 56.916 835.632 54.333 835.632 51.135C835.632 47.937 838.215 45.354 841.413 45.354C844.611 45.354 847.194 47.937 847.194 51.135C847.194 54.333 844.611 56.916 841.413 56.916ZM841.413 56.26C844.242 56.26 846.538 53.964 846.538 51.135C846.538 48.306 844.242 46.01 841.413 46.01C838.584 46.01 836.288 48.306 836.288 51.135C836.288 53.964 838.584 56.26 841.413 56.26ZM866.165 56.014L870.593 62H869.773L861.942 51.422V62H861.286V31.25H861.942V51.422L870.593 40.27H871.413L866.206 46.953L869.24 50.971L877.481 40.27H878.301L869.65 51.504L877.481 62H876.661L869.199 52.078L866.165 56.014ZM856.366 31.25V62H855.71V31.25H856.366ZM868.789 51.504L865.796 47.486L862.721 51.422L865.755 55.481L868.789 51.504ZM877.988 46.953C877.988 42.976 881.186 39.778 885.163 39.778C888.115 39.778 890.657 41.582 891.764 44.124L891.149 44.411C890.165 42.074 887.828 40.434 885.163 40.434C881.555 40.434 878.644 43.345 878.644 46.953C878.644 50.028 880.735 52.57 883.605 53.308L885.409 53.759C886.106 53.923 886.598 54.579 886.598 55.317C886.598 56.219 885.901 56.916 884.999 56.916C884.302 56.916 883.728 56.506 883.482 55.85L884.097 55.604C884.22 55.973 884.548 56.26 884.999 56.26C885.532 56.26 885.942 55.85 885.942 55.317C885.942 54.866 885.696 54.497 885.245 54.374L883.4 53.923C880.284 53.144 877.988 50.315 877.988 46.953ZM878.398 58.187L879.013 57.9C879.997 60.237 882.293 61.836 884.999 61.836C888.607 61.836 891.518 58.925 891.518 55.317C891.518 52.242 889.427 49.7 886.557 48.962L884.753 48.511C884.015 48.306 883.564 47.691 883.564 46.953C883.564 46.051 884.261 45.354 885.163 45.354C885.86 45.354 886.434 45.805 886.639 46.42L886.065 46.666C885.942 46.297 885.573 46.01 885.163 46.01C884.63 46.01 884.22 46.42 884.22 46.953C884.22 47.404 884.466 47.773 884.917 47.896L886.762 48.347C889.919 49.126 892.174 51.955 892.174 55.317C892.174 59.294 888.976 62.492 884.999 62.492C882.047 62.492 879.505 60.729 878.398 58.187ZM914.657 45.764H903.792V45.108H914.657V45.764ZM914.657 51.34H903.792V50.684H914.657V51.34ZM940.994 56.26C945.709 56.26 949.604 52.365 949.604 47.65C949.604 42.935 945.709 39.04 940.994 39.04C936.279 39.04 932.384 42.935 932.384 47.65C932.384 52.365 936.279 56.26 940.994 56.26ZM949.071 52.119L952.474 55.973C954.155 53.636 955.18 50.766 955.18 47.65C955.18 39.819 948.825 33.464 940.994 33.464C933.163 33.464 926.808 39.819 926.808 47.65C926.808 55.481 933.163 61.836 940.994 61.836C943.454 61.836 945.791 61.221 947.841 60.073L944.479 56.219C943.413 56.67 942.224 56.916 940.994 56.916C935.951 56.916 931.728 52.693 931.728 47.65C931.728 42.607 935.951 38.384 940.994 38.384C946.037 38.384 950.26 42.607 950.26 47.65C950.26 49.29 949.809 50.807 949.071 52.119ZM945.094 55.932L948.374 59.745C949.645 59.048 951.08 57.777 952.064 56.506L948.702 52.693C947.882 54.005 946.652 55.153 945.094 55.932ZM954.442 59.212L952.515 56.998C951.408 58.392 949.973 59.581 948.825 60.237L950.711 62.451L950.219 62.861L948.251 60.565C946.119 61.795 943.618 62.492 940.994 62.492C932.835 62.492 926.152 55.809 926.152 47.65C926.152 39.491 932.835 32.808 940.994 32.808C949.153 32.808 955.836 39.491 955.836 47.65C955.836 50.971 954.729 54.005 952.884 56.465L954.934 58.802L954.442 59.212ZM972.335 62H971.679L965.775 46.871V62H965.119V39.532H960.199V62H959.543V33.3H968.686C973.934 33.3 978.116 37.482 978.116 42.73C978.116 46.912 976.025 49.372 973.606 50.889L977.911 62H977.255L973.073 51.217C971.884 51.914 970.203 52.529 968.809 52.939L972.335 62ZM971.433 45.313L973.36 50.274C975.574 48.88 977.46 46.584 977.46 42.73C977.46 37.81 973.606 33.956 968.686 33.956H965.775V38.876H968.686C970.818 38.876 972.54 40.598 972.54 42.73C972.54 43.714 972.171 44.575 971.433 45.313ZM965.775 39.532V46.871L967.333 46.543C970.531 45.846 971.884 44.493 971.884 42.73C971.884 40.926 970.49 39.532 968.686 39.532H965.775ZM960.199 33.956V38.876H965.119V33.956H960.199ZM972.827 50.602L970.941 45.764C969.711 46.707 968.276 47.035 966.677 47.363L968.563 52.283C969.793 51.955 971.802 51.217 972.827 50.602ZM1005.25 56.424H1003.24C998.201 56.424 994.511 52.447 994.511 47.65C994.511 42.812 998.201 38.876 1003.24 38.876H1005.25V39.532H1003.24C998.611 39.532 995.167 43.14 995.167 47.65C995.167 52.119 998.611 55.768 1003.24 55.768H1005.25V56.424ZM1005.25 62H1003.24C995.29 62 988.935 55.563 988.935 47.65C988.935 39.737 995.29 33.3 1003.24 33.3H1005.25V33.956H1003.24C995.618 33.956 989.591 40.065 989.591 47.65C989.591 55.235 995.618 61.344 1003.24 61.344H1005.25V62ZM1018.03 62.492C1011.75 62.492 1006.67 57.408 1006.67 51.135C1006.67 44.862 1011.75 39.778 1018.03 39.778C1024.3 39.778 1029.38 44.862 1029.38 51.135C1029.38 57.408 1024.3 62.492 1018.03 62.492ZM1018.03 61.836C1023.93 61.836 1028.73 57.039 1028.73 51.135C1028.73 45.231 1023.93 40.434 1018.03 40.434C1012.12 40.434 1007.32 45.231 1007.32 51.135C1007.32 57.039 1012.12 61.836 1018.03 61.836ZM1018.03 56.916C1014.83 56.916 1012.24 54.333 1012.24 51.135C1012.24 47.937 1014.83 45.354 1018.03 45.354C1021.22 45.354 1023.81 47.937 1023.81 51.135C1023.81 54.333 1021.22 56.916 1018.03 56.916ZM1018.03 56.26C1020.85 56.26 1023.15 53.964 1023.15 51.135C1023.15 48.306 1020.85 46.01 1018.03 46.01C1015.2 46.01 1012.9 48.306 1012.9 51.135C1012.9 53.964 1015.2 56.26 1018.03 56.26ZM1031.09 51.135C1031.09 44.862 1036.18 39.778 1042.45 39.778C1044.29 39.778 1046.02 40.229 1047.57 41.008V31.25H1048.23V41.377C1050.53 42.648 1052.29 44.944 1053.15 47.322V31.25H1053.81V62H1053.15V54.907C1052.33 57.244 1050.53 59.663 1048.23 60.934V62H1047.57V61.262C1046.02 62.041 1044.29 62.492 1042.45 62.492C1036.18 62.492 1031.09 57.408 1031.09 51.135ZM1031.75 51.135C1031.75 57.039 1036.54 61.836 1042.45 61.836C1044.29 61.836 1046.06 61.385 1047.57 60.565V53.841C1046.59 55.645 1044.66 56.916 1042.45 56.916C1039.25 56.916 1036.67 54.333 1036.67 51.135C1036.67 47.937 1039.25 45.354 1042.45 45.354C1044.66 45.354 1046.59 46.625 1047.57 48.47V41.746C1046.06 40.926 1044.29 40.434 1042.45 40.434C1036.54 40.434 1031.75 45.231 1031.75 51.135ZM1037.32 51.135C1037.32 53.964 1039.62 56.26 1042.45 56.26C1045.32 56.26 1047.57 53.964 1047.57 51.135C1047.57 48.306 1045.32 46.01 1042.45 46.01C1039.62 46.01 1037.32 48.306 1037.32 51.135ZM1048.23 42.115V60.155C1050.98 58.474 1053.15 55.071 1053.15 51.135C1053.15 47.199 1050.98 43.796 1048.23 42.115ZM1056.76 51.135C1056.76 44.862 1061.84 39.778 1068.11 39.778C1073.12 39.778 1077.34 42.976 1078.86 47.486L1065.53 55.563C1066.31 56.014 1067.17 56.26 1068.11 56.26C1070.16 56.26 1071.93 55.03 1072.75 53.308L1073.36 53.595C1072.46 55.563 1070.45 56.916 1068.11 56.916C1066.92 56.916 1065.82 56.547 1064.92 55.932L1060.49 58.638C1062.41 60.606 1065.12 61.836 1068.11 61.836C1072.38 61.836 1076.11 59.294 1077.83 55.645L1078.4 55.932C1076.6 59.827 1072.66 62.492 1068.11 62.492C1061.84 62.492 1056.76 57.408 1056.76 51.135ZM1057.41 51.135C1057.41 52.324 1057.62 53.431 1057.95 54.497L1062.37 51.791C1062.33 51.586 1062.33 51.34 1062.33 51.135C1062.33 47.937 1064.92 45.354 1068.11 45.354C1069.3 45.354 1070.45 45.723 1071.35 46.338L1075.74 43.673C1073.81 41.664 1071.11 40.434 1068.11 40.434C1062.21 40.434 1057.41 45.231 1057.41 51.135ZM1058.19 55.112C1058.64 56.219 1059.26 57.244 1060.04 58.146L1064.34 55.522C1063.44 54.743 1062.78 53.677 1062.5 52.488L1058.19 55.112ZM1062.99 51.135V51.422L1070.74 46.707C1069.96 46.256 1069.06 46.01 1068.11 46.01C1065.28 46.01 1062.99 48.306 1062.99 51.135ZM1063.07 52.16C1063.32 53.349 1064.01 54.415 1064.96 55.153L1073.16 50.151C1072.91 48.962 1072.25 47.896 1071.31 47.117L1063.07 52.16ZM1071.93 46.789C1072.83 47.568 1073.48 48.593 1073.73 49.823L1078.08 47.158C1077.63 46.051 1076.97 45.067 1076.23 44.165L1071.93 46.789ZM1093.93 47.65C1093.93 42.607 1098.15 38.384 1103.19 38.384C1105.32 38.384 1107.29 39.122 1108.85 40.352L1108.44 40.844C1107.01 39.696 1105.2 39.04 1103.19 39.04C1098.48 39.04 1094.58 42.935 1094.58 47.65C1094.58 52.119 1098.03 55.768 1102.66 55.768H1106.23V47.322H1106.88V55.768H1111.8V47.322H1112.46V62H1106.88V62.041L1106.23 62H1102.66C1094.71 62 1088.35 55.563 1088.35 47.65C1088.35 39.491 1095.03 32.808 1103.19 32.808C1106.6 32.808 1109.75 33.997 1112.25 35.924L1111.84 36.416C1109.47 34.571 1106.47 33.464 1103.19 33.464C1095.36 33.464 1089.01 39.819 1089.01 47.65C1089.01 55.235 1095.03 61.344 1102.66 61.344H1106.23V56.424H1102.66C1097.62 56.424 1093.93 52.447 1093.93 47.65ZM1106.88 56.424V61.344H1111.8V56.424H1106.88ZM1115.01 51.135C1115.01 44.862 1120.1 39.778 1126.37 39.778C1131.37 39.778 1135.6 42.976 1137.11 47.486L1123.79 55.563C1124.57 56.014 1125.43 56.26 1126.37 56.26C1128.42 56.26 1130.18 55.03 1131 53.308L1131.62 53.595C1130.72 55.563 1128.71 56.916 1126.37 56.916C1125.18 56.916 1124.07 56.547 1123.17 55.932L1118.74 58.638C1120.67 60.606 1123.38 61.836 1126.37 61.836C1130.63 61.836 1134.37 59.294 1136.09 55.645L1136.66 55.932C1134.86 59.827 1130.92 62.492 1126.37 62.492C1120.1 62.492 1115.01 57.408 1115.01 51.135ZM1115.67 51.135C1115.67 52.324 1115.87 53.431 1116.2 54.497L1120.63 51.791C1120.59 51.586 1120.59 51.34 1120.59 51.135C1120.59 47.937 1123.17 45.354 1126.37 45.354C1127.56 45.354 1128.71 45.723 1129.61 46.338L1134 43.673C1132.07 41.664 1129.36 40.434 1126.37 40.434C1120.47 40.434 1115.67 45.231 1115.67 51.135ZM1116.45 55.112C1116.9 56.219 1117.51 57.244 1118.29 58.146L1122.6 55.522C1121.7 54.743 1121.04 53.677 1120.75 52.488L1116.45 55.112ZM1121.25 51.135V51.422L1128.99 46.707C1128.22 46.256 1127.31 46.01 1126.37 46.01C1123.54 46.01 1121.25 48.306 1121.25 51.135ZM1121.33 52.16C1121.57 53.349 1122.27 54.415 1123.21 55.153L1131.41 50.151C1131.17 48.962 1130.51 47.896 1129.57 47.117L1121.33 52.16ZM1130.18 46.789C1131.09 47.568 1131.74 48.593 1131.99 49.823L1136.33 47.158C1135.88 46.051 1135.23 45.067 1134.49 44.165L1130.18 46.789ZM1139.11 62V40.27H1139.76V46.461C1140.66 44.124 1142.43 42.197 1144.68 41.09V40.27H1145.34V40.762C1146.49 40.311 1147.72 40.065 1149.03 40.065C1154.48 40.065 1158.95 44.534 1158.95 49.987V62H1158.29V49.987C1158.29 44.903 1154.11 40.721 1149.03 40.721C1147.72 40.721 1146.49 41.008 1145.34 41.5V47.691C1146.12 46.461 1147.47 45.641 1149.03 45.641C1151.41 45.641 1153.37 47.609 1153.37 49.987V62H1152.72V49.987C1152.72 47.978 1151.04 46.297 1149.03 46.297C1147.02 46.297 1145.34 47.978 1145.34 49.987V62H1144.68V41.828C1141.77 43.386 1139.76 46.461 1139.76 49.987V62H1139.11ZM1161.58 51.135C1161.58 44.862 1166.66 39.778 1172.94 39.778C1177.94 39.778 1182.16 42.976 1183.68 47.486L1170.35 55.563C1171.13 56.014 1171.99 56.26 1172.94 56.26C1174.99 56.26 1176.75 55.03 1177.57 53.308L1178.18 53.595C1177.28 55.563 1175.27 56.916 1172.94 56.916C1171.75 56.916 1170.64 56.547 1169.74 55.932L1165.31 58.638C1167.24 60.606 1169.94 61.836 1172.94 61.836C1177.2 61.836 1180.93 59.294 1182.65 55.645L1183.23 55.932C1181.42 59.827 1177.49 62.492 1172.94 62.492C1166.66 62.492 1161.58 57.408 1161.58 51.135ZM1162.24 51.135C1162.24 52.324 1162.44 53.431 1162.77 54.497L1167.2 51.791C1167.16 51.586 1167.16 51.34 1167.16 51.135C1167.16 47.937 1169.74 45.354 1172.94 45.354C1174.13 45.354 1175.27 45.723 1176.18 46.338L1180.56 43.673C1178.64 41.664 1175.93 40.434 1172.94 40.434C1167.03 40.434 1162.24 45.231 1162.24 51.135ZM1163.01 55.112C1163.47 56.219 1164.08 57.244 1164.86 58.146L1169.16 55.522C1168.26 54.743 1167.61 53.677 1167.32 52.488L1163.01 55.112ZM1167.81 51.135V51.422L1175.56 46.707C1174.78 46.256 1173.88 46.01 1172.94 46.01C1170.11 46.01 1167.81 48.306 1167.81 51.135ZM1167.89 52.16C1168.14 53.349 1168.84 54.415 1169.78 55.153L1177.98 50.151C1177.73 48.962 1177.08 47.896 1176.13 47.117L1167.89 52.16ZM1176.75 46.789C1177.65 47.568 1178.31 48.593 1178.55 49.823L1182.9 47.158C1182.45 46.051 1181.79 45.067 1181.05 44.165L1176.75 46.789ZM1191.25 62V42.689C1189.03 44.042 1186.33 46.83 1186.33 51.709V62H1185.67V40.27H1186.33V47.732C1187.35 44.903 1188.95 43.304 1191.25 41.951V40.27H1191.9V41.582C1193.54 40.762 1195.31 40.352 1197.03 40.352V41.008C1195.31 41.008 1193.5 41.459 1191.9 42.32V49.044C1192.85 47.199 1194.81 45.928 1197.03 45.928V46.584C1194.16 46.584 1191.9 48.88 1191.9 51.709V62H1191.25ZM1214.95 42.115V60.155C1217.7 58.474 1219.87 55.071 1219.87 51.135C1219.87 47.199 1217.7 43.796 1214.95 42.115ZM1209.17 39.778C1211.02 39.778 1212.74 40.229 1214.3 41.008V40.27H1214.95V41.377C1217.25 42.648 1219.01 44.944 1219.87 47.322V40.27H1220.53V62H1219.87V54.907C1219.05 57.244 1217.25 59.663 1214.95 60.934V62H1214.3V61.262C1212.74 62.041 1211.02 62.492 1209.17 62.492C1202.9 62.492 1197.81 57.408 1197.81 51.135C1197.81 44.862 1202.9 39.778 1209.17 39.778ZM1209.17 61.836C1211.02 61.836 1212.78 61.385 1214.3 60.565V53.841C1213.31 55.645 1211.39 56.916 1209.17 56.916C1205.97 56.916 1203.39 54.333 1203.39 51.135C1203.39 47.937 1205.97 45.354 1209.17 45.354C1211.39 45.354 1213.31 46.625 1214.3 48.47V41.746C1212.78 40.926 1211.02 40.434 1209.17 40.434C1203.27 40.434 1198.47 45.231 1198.47 51.135C1198.47 57.039 1203.27 61.836 1209.17 61.836ZM1209.17 56.26C1212.04 56.26 1214.3 53.964 1214.3 51.135C1214.3 48.306 1212.04 46.01 1209.17 46.01C1206.34 46.01 1204.05 48.306 1204.05 51.135C1204.05 53.964 1206.34 56.26 1209.17 56.26ZM1226.76 40.926H1223.52V40.27H1226.76V33.3H1227.42V40.27H1232.34V33.3H1232.99V40.27H1236.23V40.926H1232.99V45.846H1236.23V46.502H1232.99V62H1232.34V46.502H1227.42V62H1226.76V46.502H1223.52V45.846H1226.76V40.926ZM1232.34 40.926H1227.42V45.846H1232.34V40.926ZM1248.93 62.492C1242.66 62.492 1237.57 57.408 1237.57 51.135C1237.57 44.862 1242.66 39.778 1248.93 39.778C1255.2 39.778 1260.29 44.862 1260.29 51.135C1260.29 57.408 1255.2 62.492 1248.93 62.492ZM1248.93 61.836C1254.83 61.836 1259.63 57.039 1259.63 51.135C1259.63 45.231 1254.83 40.434 1248.93 40.434C1243.03 40.434 1238.23 45.231 1238.23 51.135C1238.23 57.039 1243.03 61.836 1248.93 61.836ZM1248.93 56.916C1245.73 56.916 1243.15 54.333 1243.15 51.135C1243.15 47.937 1245.73 45.354 1248.93 45.354C1252.13 45.354 1254.71 47.937 1254.71 51.135C1254.71 54.333 1252.13 56.916 1248.93 56.916ZM1248.93 56.26C1251.76 56.26 1254.06 53.964 1254.06 51.135C1254.06 48.306 1251.76 46.01 1248.93 46.01C1246.1 46.01 1243.81 48.306 1243.81 51.135C1243.81 53.964 1246.1 56.26 1248.93 56.26ZM1268.8 62V42.689C1266.59 44.042 1263.88 46.83 1263.88 51.709V62H1263.23V40.27H1263.88V47.732C1264.91 44.903 1266.51 43.304 1268.8 41.951V40.27H1269.46V41.582C1271.1 40.762 1272.86 40.352 1274.58 40.352V41.008C1272.86 41.008 1271.06 41.459 1269.46 42.32V49.044C1270.4 47.199 1272.37 45.928 1274.58 45.928V46.584C1271.71 46.584 1269.46 48.88 1269.46 51.709V62H1268.8ZM1300.9 56.424H1298.89C1293.85 56.424 1290.16 52.447 1290.16 47.65C1290.16 42.812 1293.85 38.876 1298.89 38.876H1300.9V39.532H1298.89C1294.26 39.532 1290.82 43.14 1290.82 47.65C1290.82 52.119 1294.26 55.768 1298.89 55.768H1300.9V56.424ZM1300.9 62H1298.89C1290.94 62 1284.58 55.563 1284.58 47.65C1284.58 39.737 1290.94 33.3 1298.89 33.3H1300.9V33.956H1298.89C1291.27 33.956 1285.24 40.065 1285.24 47.65C1285.24 55.235 1291.27 61.344 1298.89 61.344H1300.9V62ZM1323.3 40.27V62H1322.65V55.809C1321.74 58.146 1319.98 60.073 1317.73 61.18V62H1317.07V61.508C1315.92 61.959 1314.69 62.205 1313.38 62.205C1307.93 62.205 1303.46 57.736 1303.46 52.283V40.27H1304.11V52.283C1304.11 57.367 1308.3 61.549 1313.38 61.549C1314.69 61.549 1315.92 61.262 1317.07 60.77V54.579C1316.29 55.809 1314.94 56.629 1313.38 56.629C1311 56.629 1309.03 54.661 1309.03 52.283V40.27H1309.69V52.283C1309.69 54.292 1311.37 55.973 1313.38 55.973C1315.39 55.973 1317.07 54.292 1317.07 52.283V40.27H1317.73V60.442C1320.64 58.884 1322.65 55.809 1322.65 52.283V40.27H1323.3ZM1326.51 46.953C1326.51 42.976 1329.7 39.778 1333.68 39.778C1336.63 39.778 1339.17 41.582 1340.28 44.124L1339.67 44.411C1338.68 42.074 1336.35 40.434 1333.68 40.434C1330.07 40.434 1327.16 43.345 1327.16 46.953C1327.16 50.028 1329.25 52.57 1332.12 53.308L1333.93 53.759C1334.62 53.923 1335.12 54.579 1335.12 55.317C1335.12 56.219 1334.42 56.916 1333.52 56.916C1332.82 56.916 1332.25 56.506 1332 55.85L1332.61 55.604C1332.74 55.973 1333.07 56.26 1333.52 56.26C1334.05 56.26 1334.46 55.85 1334.46 55.317C1334.46 54.866 1334.21 54.497 1333.76 54.374L1331.92 53.923C1328.8 53.144 1326.51 50.315 1326.51 46.953ZM1326.92 58.187L1327.53 57.9C1328.51 60.237 1330.81 61.836 1333.52 61.836C1337.12 61.836 1340.04 58.925 1340.04 55.317C1340.04 52.242 1337.94 49.7 1335.07 48.962L1333.27 48.511C1332.53 48.306 1332.08 47.691 1332.08 46.953C1332.08 46.051 1332.78 45.354 1333.68 45.354C1334.38 45.354 1334.95 45.805 1335.16 46.42L1334.58 46.666C1334.46 46.297 1334.09 46.01 1333.68 46.01C1333.15 46.01 1332.74 46.42 1332.74 46.953C1332.74 47.404 1332.98 47.773 1333.43 47.896L1335.28 48.347C1338.44 49.126 1340.69 51.955 1340.69 55.317C1340.69 59.294 1337.49 62.492 1333.52 62.492C1330.56 62.492 1328.02 60.729 1326.92 58.187ZM1345.76 40.926H1342.52V40.27H1345.76V33.3H1346.41V40.27H1351.33V33.3H1351.99V40.27H1355.23V40.926H1351.99V45.846H1355.23V46.502H1351.99V62H1351.33V46.502H1346.41V62H1345.76V46.502H1342.52V45.846H1345.76V40.926ZM1351.33 40.926H1346.41V45.846H1351.33V40.926ZM1367.93 62.492C1361.65 62.492 1356.57 57.408 1356.57 51.135C1356.57 44.862 1361.65 39.778 1367.93 39.778C1374.2 39.778 1379.28 44.862 1379.28 51.135C1379.28 57.408 1374.2 62.492 1367.93 62.492ZM1367.93 61.836C1373.83 61.836 1378.63 57.039 1378.63 51.135C1378.63 45.231 1373.83 40.434 1367.93 40.434C1362.02 40.434 1357.23 45.231 1357.23 51.135C1357.23 57.039 1362.02 61.836 1367.93 61.836ZM1367.93 56.916C1364.73 56.916 1362.15 54.333 1362.15 51.135C1362.15 47.937 1364.73 45.354 1367.93 45.354C1371.12 45.354 1373.71 47.937 1373.71 51.135C1373.71 54.333 1371.12 56.916 1367.93 56.916ZM1367.93 56.26C1370.76 56.26 1373.05 53.964 1373.05 51.135C1373.05 48.306 1370.76 46.01 1367.93 46.01C1365.1 46.01 1362.8 48.306 1362.8 51.135C1362.8 53.964 1365.1 56.26 1367.93 56.26ZM1382.22 62V40.27H1382.88V45.969C1383.78 43.714 1385.59 41.869 1387.8 40.885V40.27H1388.46V40.639C1389.4 40.311 1390.46 40.106 1391.53 40.106C1393.91 40.106 1396.08 41.008 1397.72 42.484C1399.36 41.008 1401.53 40.106 1403.91 40.106C1409.04 40.106 1413.22 44.288 1413.22 49.413V62H1412.56V49.413C1412.56 44.657 1408.67 40.762 1403.91 40.762C1401.74 40.762 1399.73 41.582 1398.21 42.935C1399.44 44.206 1400.3 45.805 1400.67 47.609C1401.29 46.461 1402.52 45.682 1403.91 45.682C1405.96 45.682 1407.64 47.363 1407.64 49.413V62H1406.99V49.413C1406.99 47.732 1405.59 46.338 1403.91 46.338C1402.23 46.338 1400.84 47.732 1400.84 49.413V62H1400.18V49.413C1400.18 47.076 1399.24 44.944 1397.72 43.386C1396.2 44.944 1395.26 47.076 1395.26 49.413V62H1394.61V49.413C1394.61 47.732 1393.21 46.338 1391.53 46.338C1389.85 46.338 1388.46 47.732 1388.46 49.413V62H1387.8V41.623C1384.89 43.017 1382.88 46.01 1382.88 49.413V62H1382.22ZM1388.46 41.336V47.322C1389.11 46.338 1390.26 45.682 1391.53 45.682C1392.92 45.682 1394.15 46.461 1394.77 47.609C1395.14 45.805 1396 44.206 1397.23 42.935C1395.71 41.582 1393.7 40.762 1391.53 40.762C1390.46 40.762 1389.4 40.967 1388.46 41.336ZM1431.81 44.534V33.3H1432.47V44.534H1443.29V33.3H1443.95V44.534H1448.87V33.3H1449.53V62H1448.87V50.766H1443.95V62H1443.29V50.766H1432.47V62H1431.81V50.766H1426.89V62H1426.24V33.3H1426.89V44.534H1431.81ZM1443.29 45.19H1432.47V50.11H1443.29V45.19ZM1431.81 50.11V45.19H1426.89V50.11H1431.81ZM1448.87 50.11V45.19H1443.95V50.11H1448.87ZM1463.94 62.492C1457.67 62.492 1452.58 57.408 1452.58 51.135C1452.58 44.862 1457.67 39.778 1463.94 39.778C1470.21 39.778 1475.3 44.862 1475.3 51.135C1475.3 57.408 1470.21 62.492 1463.94 62.492ZM1463.94 61.836C1469.84 61.836 1474.64 57.039 1474.64 51.135C1474.64 45.231 1469.84 40.434 1463.94 40.434C1458.04 40.434 1453.24 45.231 1453.24 51.135C1453.24 57.039 1458.04 61.836 1463.94 61.836ZM1463.94 56.916C1460.74 56.916 1458.16 54.333 1458.16 51.135C1458.16 47.937 1460.74 45.354 1463.94 45.354C1467.14 45.354 1469.72 47.937 1469.72 51.135C1469.72 54.333 1467.14 56.916 1463.94 56.916ZM1463.94 56.26C1466.77 56.26 1469.07 53.964 1469.07 51.135C1469.07 48.306 1466.77 46.01 1463.94 46.01C1461.11 46.01 1458.82 48.306 1458.82 51.135C1458.82 53.964 1461.11 56.26 1463.94 56.26ZM1488.36 62.492C1482.09 62.492 1477.01 57.408 1477.01 51.135C1477.01 44.862 1482.09 39.778 1488.36 39.778C1494.64 39.778 1499.72 44.862 1499.72 51.135C1499.72 57.408 1494.64 62.492 1488.36 62.492ZM1488.36 61.836C1494.27 61.836 1499.06 57.039 1499.06 51.135C1499.06 45.231 1494.27 40.434 1488.36 40.434C1482.46 40.434 1477.66 45.231 1477.66 51.135C1477.66 57.039 1482.46 61.836 1488.36 61.836ZM1488.36 56.916C1485.17 56.916 1482.58 54.333 1482.58 51.135C1482.58 47.937 1485.17 45.354 1488.36 45.354C1491.56 45.354 1494.14 47.937 1494.14 51.135C1494.14 54.333 1491.56 56.916 1488.36 56.916ZM1488.36 56.26C1491.19 56.26 1493.49 53.964 1493.49 51.135C1493.49 48.306 1491.19 46.01 1488.36 46.01C1485.53 46.01 1483.24 48.306 1483.24 51.135C1483.24 53.964 1485.53 56.26 1488.36 56.26ZM1513.12 56.014L1517.54 62H1516.72L1508.89 51.422V62H1508.24V31.25H1508.89V51.422L1517.54 40.27H1518.36L1513.16 46.953L1516.19 50.971L1524.43 40.27H1525.25L1516.6 51.504L1524.43 62H1523.61L1516.15 52.078L1513.12 56.014ZM1503.32 31.25V62H1502.66V31.25H1503.32ZM1515.74 51.504L1512.75 47.486L1509.67 51.422L1512.71 55.481L1515.74 51.504ZM1524.94 46.953C1524.94 42.976 1528.14 39.778 1532.11 39.778C1535.07 39.778 1537.61 41.582 1538.72 44.124L1538.1 44.411C1537.12 42.074 1534.78 40.434 1532.11 40.434C1528.51 40.434 1525.6 43.345 1525.6 46.953C1525.6 50.028 1527.69 52.57 1530.56 53.308L1532.36 53.759C1533.06 53.923 1533.55 54.579 1533.55 55.317C1533.55 56.219 1532.85 56.916 1531.95 56.916C1531.25 56.916 1530.68 56.506 1530.43 55.85L1531.05 55.604C1531.17 55.973 1531.5 56.26 1531.95 56.26C1532.48 56.26 1532.89 55.85 1532.89 55.317C1532.89 54.866 1532.65 54.497 1532.2 54.374L1530.35 53.923C1527.24 53.144 1524.94 50.315 1524.94 46.953ZM1525.35 58.187L1525.96 57.9C1526.95 60.237 1529.24 61.836 1531.95 61.836C1535.56 61.836 1538.47 58.925 1538.47 55.317C1538.47 52.242 1536.38 49.7 1533.51 48.962L1531.7 48.511C1530.97 48.306 1530.52 47.691 1530.52 46.953C1530.52 46.051 1531.21 45.354 1532.11 45.354C1532.81 45.354 1533.39 45.805 1533.59 46.42L1533.02 46.666C1532.89 46.297 1532.52 46.01 1532.11 46.01C1531.58 46.01 1531.17 46.42 1531.17 46.953C1531.17 47.404 1531.42 47.773 1531.87 47.896L1533.71 48.347C1536.87 49.126 1539.13 51.955 1539.13 55.317C1539.13 59.294 1535.93 62.492 1531.95 62.492C1529 62.492 1526.46 60.729 1525.35 58.187ZM1561.61 45.764H1550.74V45.108H1561.61V45.764ZM1561.61 51.34H1550.74V50.684H1561.61V51.34ZM1587.95 56.26C1592.66 56.26 1596.56 52.365 1596.56 47.65C1596.56 42.935 1592.66 39.04 1587.95 39.04C1583.23 39.04 1579.34 42.935 1579.34 47.65C1579.34 52.365 1583.23 56.26 1587.95 56.26ZM1596.02 52.119L1599.43 55.973C1601.11 53.636 1602.13 50.766 1602.13 47.65C1602.13 39.819 1595.78 33.464 1587.95 33.464C1580.11 33.464 1573.76 39.819 1573.76 47.65C1573.76 55.481 1580.11 61.836 1587.95 61.836C1590.41 61.836 1592.74 61.221 1594.79 60.073L1591.43 56.219C1590.36 56.67 1589.18 56.916 1587.95 56.916C1582.9 56.916 1578.68 52.693 1578.68 47.65C1578.68 42.607 1582.9 38.384 1587.95 38.384C1592.99 38.384 1597.21 42.607 1597.21 47.65C1597.21 49.29 1596.76 50.807 1596.02 52.119ZM1592.05 55.932L1595.33 59.745C1596.6 59.048 1598.03 57.777 1599.02 56.506L1595.65 52.693C1594.83 54.005 1593.6 55.153 1592.05 55.932ZM1601.39 59.212L1599.47 56.998C1598.36 58.392 1596.92 59.581 1595.78 60.237L1597.66 62.451L1597.17 62.861L1595.2 60.565C1593.07 61.795 1590.57 62.492 1587.95 62.492C1579.79 62.492 1573.1 55.809 1573.1 47.65C1573.1 39.491 1579.79 32.808 1587.95 32.808C1596.1 32.808 1602.79 39.491 1602.79 47.65C1602.79 50.971 1601.68 54.005 1599.84 56.465L1601.89 58.802L1601.39 59.212ZM1619.29 62H1618.63L1612.73 46.871V62H1612.07V39.532H1607.15V62H1606.49V33.3H1615.64C1620.89 33.3 1625.07 37.482 1625.07 42.73C1625.07 46.912 1622.98 49.372 1620.56 50.889L1624.86 62H1624.21L1620.02 51.217C1618.84 51.914 1617.15 52.529 1615.76 52.939L1619.29 62ZM1618.38 45.313L1620.31 50.274C1622.53 48.88 1624.41 46.584 1624.41 42.73C1624.41 37.81 1620.56 33.956 1615.64 33.956H1612.73V38.876H1615.64C1617.77 38.876 1619.49 40.598 1619.49 42.73C1619.49 43.714 1619.12 44.575 1618.38 45.313ZM1612.73 39.532V46.871L1614.28 46.543C1617.48 45.846 1618.84 44.493 1618.84 42.73C1618.84 40.926 1617.44 39.532 1615.64 39.532H1612.73ZM1607.15 33.956V38.876H1612.07V33.956H1607.15ZM1619.78 50.602L1617.89 45.764C1616.66 46.707 1615.23 47.035 1613.63 47.363L1615.51 52.283C1616.74 51.955 1618.75 51.217 1619.78 50.602ZM1652.2 56.424H1650.19C1645.15 56.424 1641.46 52.447 1641.46 47.65C1641.46 42.812 1645.15 38.876 1650.19 38.876H1652.2V39.532H1650.19C1645.56 39.532 1642.12 43.14 1642.12 47.65C1642.12 52.119 1645.56 55.768 1650.19 55.768H1652.2V56.424ZM1652.2 62H1650.19C1642.24 62 1635.89 55.563 1635.89 47.65C1635.89 39.737 1642.24 33.3 1650.19 33.3H1652.2V33.956H1650.19C1642.57 33.956 1636.54 40.065 1636.54 47.65C1636.54 55.235 1642.57 61.344 1650.19 61.344H1652.2V62ZM1664.98 62.492C1658.7 62.492 1653.62 57.408 1653.62 51.135C1653.62 44.862 1658.7 39.778 1664.98 39.778C1671.25 39.778 1676.33 44.862 1676.33 51.135C1676.33 57.408 1671.25 62.492 1664.98 62.492ZM1664.98 61.836C1670.88 61.836 1675.68 57.039 1675.68 51.135C1675.68 45.231 1670.88 40.434 1664.98 40.434C1659.07 40.434 1654.28 45.231 1654.28 51.135C1654.28 57.039 1659.07 61.836 1664.98 61.836ZM1664.98 56.916C1661.78 56.916 1659.2 54.333 1659.2 51.135C1659.2 47.937 1661.78 45.354 1664.98 45.354C1668.17 45.354 1670.76 47.937 1670.76 51.135C1670.76 54.333 1668.17 56.916 1664.98 56.916ZM1664.98 56.26C1667.81 56.26 1670.1 53.964 1670.1 51.135C1670.1 48.306 1667.81 46.01 1664.98 46.01C1662.15 46.01 1659.85 48.306 1659.85 51.135C1659.85 53.964 1662.15 56.26 1664.98 56.26ZM1678.04 51.135C1678.04 44.862 1683.13 39.778 1689.4 39.778C1691.25 39.778 1692.97 40.229 1694.53 41.008V31.25H1695.18V41.377C1697.48 42.648 1699.24 44.944 1700.1 47.322V31.25H1700.76V62H1700.1V54.907C1699.28 57.244 1697.48 59.663 1695.18 60.934V62H1694.53V61.262C1692.97 62.041 1691.25 62.492 1689.4 62.492C1683.13 62.492 1678.04 57.408 1678.04 51.135ZM1678.7 51.135C1678.7 57.039 1683.5 61.836 1689.4 61.836C1691.25 61.836 1693.01 61.385 1694.53 60.565V53.841C1693.54 55.645 1691.61 56.916 1689.4 56.916C1686.2 56.916 1683.62 54.333 1683.62 51.135C1683.62 47.937 1686.2 45.354 1689.4 45.354C1691.61 45.354 1693.54 46.625 1694.53 48.47V41.746C1693.01 40.926 1691.25 40.434 1689.4 40.434C1683.5 40.434 1678.7 45.231 1678.7 51.135ZM1684.28 51.135C1684.28 53.964 1686.57 56.26 1689.4 56.26C1692.27 56.26 1694.53 53.964 1694.53 51.135C1694.53 48.306 1692.27 46.01 1689.4 46.01C1686.57 46.01 1684.28 48.306 1684.28 51.135ZM1695.18 42.115V60.155C1697.93 58.474 1700.1 55.071 1700.1 51.135C1700.1 47.199 1697.93 43.796 1695.18 42.115ZM1703.71 51.135C1703.71 44.862 1708.79 39.778 1715.07 39.778C1720.07 39.778 1724.29 42.976 1725.81 47.486L1712.48 55.563C1713.26 56.014 1714.12 56.26 1715.07 56.26C1717.12 56.26 1718.88 55.03 1719.7 53.308L1720.31 53.595C1719.41 55.563 1717.4 56.916 1715.07 56.916C1713.88 56.916 1712.77 56.547 1711.87 55.932L1707.44 58.638C1709.37 60.606 1712.07 61.836 1715.07 61.836C1719.33 61.836 1723.06 59.294 1724.78 55.645L1725.36 55.932C1723.55 59.827 1719.62 62.492 1715.07 62.492C1708.79 62.492 1703.71 57.408 1703.71 51.135ZM1704.36 51.135C1704.36 52.324 1704.57 53.431 1704.9 54.497L1709.33 51.791C1709.28 51.586 1709.28 51.34 1709.28 51.135C1709.28 47.937 1711.87 45.354 1715.07 45.354C1716.25 45.354 1717.4 45.723 1718.3 46.338L1722.69 43.673C1720.76 41.664 1718.06 40.434 1715.07 40.434C1709.16 40.434 1704.36 45.231 1704.36 51.135ZM1705.14 55.112C1705.59 56.219 1706.21 57.244 1706.99 58.146L1711.29 55.522C1710.39 54.743 1709.74 53.677 1709.45 52.488L1705.14 55.112ZM1709.94 51.135V51.422L1717.69 46.707C1716.91 46.256 1716.01 46.01 1715.07 46.01C1712.24 46.01 1709.94 48.306 1709.94 51.135ZM1710.02 52.16C1710.27 53.349 1710.97 54.415 1711.91 55.153L1720.11 50.151C1719.86 48.962 1719.21 47.896 1718.26 47.117L1710.02 52.16ZM1718.88 46.789C1719.78 47.568 1720.44 48.593 1720.68 49.823L1725.03 47.158C1724.58 46.051 1723.92 45.067 1723.18 44.165L1718.88 46.789ZM1740.88 47.65C1740.88 42.607 1745.1 38.384 1750.14 38.384C1752.28 38.384 1754.24 39.122 1755.8 40.352L1755.39 40.844C1753.96 39.696 1752.15 39.04 1750.14 39.04C1745.43 39.04 1741.53 42.935 1741.53 47.65C1741.53 52.119 1744.98 55.768 1749.61 55.768H1753.18V47.322H1753.83V55.768H1758.75V47.322H1759.41V62H1753.83V62.041L1753.18 62H1749.61C1741.66 62 1735.3 55.563 1735.3 47.65C1735.3 39.491 1741.98 32.808 1750.14 32.808C1753.55 32.808 1756.7 33.997 1759.2 35.924L1758.79 36.416C1756.42 34.571 1753.42 33.464 1750.14 33.464C1742.31 33.464 1735.96 39.819 1735.96 47.65C1735.96 55.235 1741.98 61.344 1749.61 61.344H1753.18V56.424H1749.61C1744.57 56.424 1740.88 52.447 1740.88 47.65ZM1753.83 56.424V61.344H1758.75V56.424H1753.83ZM1761.97 51.135C1761.97 44.862 1767.05 39.778 1773.32 39.778C1778.32 39.778 1782.55 42.976 1784.06 47.486L1770.74 55.563C1771.52 56.014 1772.38 56.26 1773.32 56.26C1775.37 56.26 1777.14 55.03 1777.96 53.308L1778.57 53.595C1777.67 55.563 1775.66 56.916 1773.32 56.916C1772.13 56.916 1771.03 56.547 1770.12 55.932L1765.7 58.638C1767.62 60.606 1770.33 61.836 1773.32 61.836C1777.59 61.836 1781.32 59.294 1783.04 55.645L1783.61 55.932C1781.81 59.827 1777.87 62.492 1773.32 62.492C1767.05 62.492 1761.97 57.408 1761.97 51.135ZM1762.62 51.135C1762.62 52.324 1762.83 53.431 1763.15 54.497L1767.58 51.791C1767.54 51.586 1767.54 51.34 1767.54 51.135C1767.54 47.937 1770.12 45.354 1773.32 45.354C1774.51 45.354 1775.66 45.723 1776.56 46.338L1780.95 43.673C1779.02 41.664 1776.32 40.434 1773.32 40.434C1767.42 40.434 1762.62 45.231 1762.62 51.135ZM1763.4 55.112C1763.85 56.219 1764.47 57.244 1765.25 58.146L1769.55 55.522C1768.65 54.743 1767.99 53.677 1767.71 52.488L1763.4 55.112ZM1768.2 51.135V51.422L1775.95 46.707C1775.17 46.256 1774.27 46.01 1773.32 46.01C1770.49 46.01 1768.2 48.306 1768.2 51.135ZM1768.28 52.16C1768.53 53.349 1769.22 54.415 1770.17 55.153L1778.37 50.151C1778.12 48.962 1777.46 47.896 1776.52 47.117L1768.28 52.16ZM1777.14 46.789C1778.04 47.568 1778.69 48.593 1778.94 49.823L1783.29 47.158C1782.83 46.051 1782.18 45.067 1781.44 44.165L1777.14 46.789ZM1786.06 62V40.27H1786.71V46.461C1787.62 44.124 1789.38 42.197 1791.63 41.09V40.27H1792.29V40.762C1793.44 40.311 1794.67 40.065 1795.98 40.065C1801.43 40.065 1805.9 44.534 1805.9 49.987V62H1805.25V49.987C1805.25 44.903 1801.06 40.721 1795.98 40.721C1794.67 40.721 1793.44 41.008 1792.29 41.5V47.691C1793.07 46.461 1794.42 45.641 1795.98 45.641C1798.36 45.641 1800.33 47.609 1800.33 49.987V62H1799.67V49.987C1799.67 47.978 1797.99 46.297 1795.98 46.297C1793.97 46.297 1792.29 47.978 1792.29 49.987V62H1791.63V41.828C1788.72 43.386 1786.71 46.461 1786.71 49.987V62H1786.06ZM1808.53 51.135C1808.53 44.862 1813.61 39.778 1819.89 39.778C1824.89 39.778 1829.11 42.976 1830.63 47.486L1817.3 55.563C1818.08 56.014 1818.94 56.26 1819.89 56.26C1821.94 56.26 1823.7 55.03 1824.52 53.308L1825.14 53.595C1824.23 55.563 1822.22 56.916 1819.89 56.916C1818.7 56.916 1817.59 56.547 1816.69 55.932L1812.26 58.638C1814.19 60.606 1816.89 61.836 1819.89 61.836C1824.15 61.836 1827.88 59.294 1829.6 55.645L1830.18 55.932C1828.37 59.827 1824.44 62.492 1819.89 62.492C1813.61 62.492 1808.53 57.408 1808.53 51.135ZM1809.19 51.135C1809.19 52.324 1809.39 53.431 1809.72 54.497L1814.15 51.791C1814.11 51.586 1814.11 51.34 1814.11 51.135C1814.11 47.937 1816.69 45.354 1819.89 45.354C1821.08 45.354 1822.22 45.723 1823.13 46.338L1827.51 43.673C1825.59 41.664 1822.88 40.434 1819.89 40.434C1813.98 40.434 1809.19 45.231 1809.19 51.135ZM1809.97 55.112C1810.42 56.219 1811.03 57.244 1811.81 58.146L1816.12 55.522C1815.21 54.743 1814.56 53.677 1814.27 52.488L1809.97 55.112ZM1814.76 51.135V51.422L1822.51 46.707C1821.73 46.256 1820.83 46.01 1819.89 46.01C1817.06 46.01 1814.76 48.306 1814.76 51.135ZM1814.84 52.16C1815.09 53.349 1815.79 54.415 1816.73 55.153L1824.93 50.151C1824.68 48.962 1824.03 47.896 1823.09 47.117L1814.84 52.16ZM1823.7 46.789C1824.6 47.568 1825.26 48.593 1825.5 49.823L1829.85 47.158C1829.4 46.051 1828.74 45.067 1828.01 44.165L1823.7 46.789ZM1838.2 62V42.689C1835.98 44.042 1833.28 46.83 1833.28 51.709V62H1832.62V40.27H1833.28V47.732C1834.3 44.903 1835.9 43.304 1838.2 41.951V40.27H1838.85V41.582C1840.49 40.762 1842.26 40.352 1843.98 40.352V41.008C1842.26 41.008 1840.45 41.459 1838.85 42.32V49.044C1839.8 47.199 1841.77 45.928 1843.98 45.928V46.584C1841.11 46.584 1838.85 48.88 1838.85 51.709V62H1838.2ZM1861.9 42.115V60.155C1864.65 58.474 1866.82 55.071 1866.82 51.135C1866.82 47.199 1864.65 43.796 1861.9 42.115ZM1856.12 39.778C1857.97 39.778 1859.69 40.229 1861.25 41.008V40.27H1861.9V41.377C1864.2 42.648 1865.96 44.944 1866.82 47.322V40.27H1867.48V62H1866.82V54.907C1866 57.244 1864.2 59.663 1861.9 60.934V62H1861.25V61.262C1859.69 62.041 1857.97 62.492 1856.12 62.492C1849.85 62.492 1844.77 57.408 1844.77 51.135C1844.77 44.862 1849.85 39.778 1856.12 39.778ZM1856.12 61.836C1857.97 61.836 1859.73 61.385 1861.25 60.565V53.841C1860.26 55.645 1858.34 56.916 1856.12 56.916C1852.92 56.916 1850.34 54.333 1850.34 51.135C1850.34 47.937 1852.92 45.354 1856.12 45.354C1858.34 45.354 1860.26 46.625 1861.25 48.47V41.746C1859.73 40.926 1857.97 40.434 1856.12 40.434C1850.22 40.434 1845.42 45.231 1845.42 51.135C1845.42 57.039 1850.22 61.836 1856.12 61.836ZM1856.12 56.26C1858.99 56.26 1861.25 53.964 1861.25 51.135C1861.25 48.306 1858.99 46.01 1856.12 46.01C1853.29 46.01 1851 48.306 1851 51.135C1851 53.964 1853.29 56.26 1856.12 56.26ZM1873.71 40.926H1870.47V40.27H1873.71V33.3H1874.37V40.27H1879.29V33.3H1879.94V40.27H1883.18V40.926H1879.94V45.846H1883.18V46.502H1879.94V62H1879.29V46.502H1874.37V62H1873.71V46.502H1870.47V45.846H1873.71V40.926ZM1879.29 40.926H1874.37V45.846H1879.29V40.926ZM1895.88 62.492C1889.61 62.492 1884.52 57.408 1884.52 51.135C1884.52 44.862 1889.61 39.778 1895.88 39.778C1902.15 39.778 1907.24 44.862 1907.24 51.135C1907.24 57.408 1902.15 62.492 1895.88 62.492ZM1895.88 61.836C1901.79 61.836 1906.58 57.039 1906.58 51.135C1906.58 45.231 1901.79 40.434 1895.88 40.434C1889.98 40.434 1885.18 45.231 1885.18 51.135C1885.18 57.039 1889.98 61.836 1895.88 61.836ZM1895.88 56.916C1892.68 56.916 1890.1 54.333 1890.1 51.135C1890.1 47.937 1892.68 45.354 1895.88 45.354C1899.08 45.354 1901.66 47.937 1901.66 51.135C1901.66 54.333 1899.08 56.916 1895.88 56.916ZM1895.88 56.26C1898.71 56.26 1901.01 53.964 1901.01 51.135C1901.01 48.306 1898.71 46.01 1895.88 46.01C1893.05 46.01 1890.76 48.306 1890.76 51.135C1890.76 53.964 1893.05 56.26 1895.88 56.26ZM1915.75 62V42.689C1913.54 44.042 1910.83 46.83 1910.83 51.709V62H1910.18V40.27H1910.83V47.732C1911.86 44.903 1913.46 43.304 1915.75 41.951V40.27H1916.41V41.582C1918.05 40.762 1919.81 40.352 1921.54 40.352V41.008C1919.81 41.008 1918.01 41.459 1916.41 42.32V49.044C1917.35 47.199 1919.32 45.928 1921.54 45.928V46.584C1918.67 46.584 1916.41 48.88 1916.41 51.709V62H1915.75Z" fill="white"/>
</g>
<defs>
<clipPath id="clip0_880_619">
<rect width="1940" height="343" fill="white"/>
</clipPath>
</defs>
</svg>
